<?xml version="1.0" encoding="UTF-8"?>
<svg version="1.1" xmlns="http://www.w3.org/2000/svg" width="278" height="245">
<path d="M0 0 C7.77461563 5.4706499 14.42672438 12.17006719 21 19 C25.22774939 15.66267212 29.02038533 12.15074959 32.671875 8.18359375 C39.49773904 0.97694804 47.38022688 -5.17401324 57 -8 C58.1875 -6.3125 58.1875 -6.3125 59 -4 C57.08400484 0.10663809 55.03351971 1.8878785 51.125 4.0625 C42.32956258 9.37958201 35.19913066 16.73148013 28 24 C29.26806387 27.62928623 30.63294848 29.9505705 33.3125 32.6875 C39.39880784 39.28845887 44.41749397 46.71841512 49.59301758 54.03637695 C50.58759097 55.42443071 51.62026754 56.78555192 52.6784668 58.12573242 C54 60 54 60 54 62 C55.0621875 62.06058594 56.124375 62.12117188 57.21875 62.18359375 C58.64584143 62.26809258 60.07292431 62.35273575 61.5 62.4375 C62.19609375 62.47681641 62.8921875 62.51613281 63.609375 62.55664062 C68.44062266 62.84741016 73.20265901 63.35711309 78 64 C79.3947584 58.34648901 80.7240929 52.68149413 82 47 C82.23460937 45.97390625 82.46921875 44.9478125 82.7109375 43.890625 C83.76927217 38.33820252 84.02889662 33.20127312 83.90625 27.5546875 C83.88401367 26.38800537 83.86177734 25.22132324 83.83886719 24.01928711 C83.78026213 21.65721343 83.6929992 19.29565306 83.57519531 16.93579102 C83.35217705 8.79622395 83.35217705 8.79622395 85.35351562 6.33642578 C87.015625 5.22265625 87.015625 5.22265625 90 4 C95.33014856 16.08167008 93.28633298 29.63752336 91.1875 42.25 C91.0222583 43.24306152 90.8570166 44.23612305 90.68676758 45.25927734 C89.50608485 51.95888785 87.89839108 58.46883069 86 65 C86.67877197 65.15033691 87.35754395 65.30067383 88.05688477 65.45556641 C130.25494277 74.90593132 130.25494277 74.90593132 142 89 C144.37333148 93.74666296 144.39130529 97.96527653 143 103 C140.05209657 108.59085133 140.05209657 108.59085133 136.75 109.875 C136.1725 109.91625 135.595 109.9575 135 110 C133.8125 107.3125 133.8125 107.3125 133 104 C133.9873454 102.32580562 134.98812105 100.65948148 136 99 C136.0951654 95.33025482 136.0951654 95.33025482 135 92 C133.15350488 90.88373179 133.15350488 90.88373179 131 90 C129.76272202 89.22107125 128.53370399 88.42889529 127.3125 87.625 C114.0174576 79.32772901 98.22076388 75.96696348 83 73 C82.608125 74.216875 82.21625 75.43375 81.8125 76.6875 C80.10344747 81.89722052 78.01429237 86.93151125 75.890625 91.984375 C74.50645088 96.67114 75.932321 100.18079783 77.84765625 104.5390625 C78.20537109 105.36664063 78.56308594 106.19421875 78.93164062 107.046875 C79.6890511 108.7736139 80.44686734 110.50017487 81.20507812 112.2265625 C81.56150391 113.0515625 81.91792969 113.8765625 82.28515625 114.7265625 C82.77834351 115.84925537 82.77834351 115.84925537 83.28149414 116.99462891 C84 119 84 119 84 122 C84.88042969 121.7834375 85.76085937 121.566875 86.66796875 121.34375 C88.41013672 120.92609375 88.41013672 120.92609375 90.1875 120.5 C91.91033203 120.08234375 91.91033203 120.08234375 93.66796875 119.65625 C96.56818829 119.08504615 99.06096385 118.86716221 102 119 C102.33 121.31 102.66 123.62 103 126 C101.62714844 126.30744141 101.62714844 126.30744141 100.2265625 126.62109375 C98.44378906 127.02521484 98.44378906 127.02521484 96.625 127.4375 C95.44164062 127.70433594 94.25828125 127.97117188 93.0390625 128.24609375 C90.10505419 128.85634695 90.10505419 128.85634695 88 130 C88.176521 130.66531738 88.35304199 131.33063477 88.53491211 132.01611328 C89.3385972 135.05166965 90.13808398 138.08831671 90.9375 141.125 C91.21529297 142.17171875 91.49308594 143.2184375 91.77929688 144.296875 C92.18051758 145.82441406 92.18051758 145.82441406 92.58984375 147.3828125 C92.83597412 148.31496582 93.08210449 149.24711914 93.33569336 150.20751953 C95.05167578 157.42082602 95.25013362 164.36582104 95.3125 171.75 C95.34150391 172.87921875 95.37050781 174.0084375 95.40039062 175.171875 C95.47359516 184.90244696 93.52603134 193.34490678 86.6875 200.59375 C81.79714942 204.66904215 75.93871969 205.624466 69.703125 205.4140625 C54.85805573 203.1401068 42.87909968 192.5368731 32 183 C30.56413573 181.76892293 29.12702146 180.53929865 27.6875 179.3125 C26.800625 178.549375 25.91375 177.78625 25 177 C20.961143 179.18141474 18.18656557 181.71700605 15.0625 185.0625 C4.86378306 195.57282973 -8.67979954 206.14858688 -23.8359375 207.140625 C-29.42791413 206.77724746 -34.83623944 204.80169443 -39 201 C-38.67 200.01 -38.34 199.02 -38 198 C-31.375 196.875 -31.375 196.875 -28 198 C-21.86499286 198.41593269 -17.55062703 197.58391258 -12 195 C-11.34773438 194.71769531 -10.69546875 194.43539062 -10.0234375 194.14453125 C0.70184973 188.90239648 9.71442679 179.43830267 18 171 C15.97690552 166.16837437 12.3241341 162.3918995 8.98535156 158.42871094 C6.01241218 154.8097057 3.52199335 151.29164142 1.3828125 147.1171875 C-3.03090505 138.31236012 -3.03090505 138.31236012 -10.87109375 132.91894531 C-17.84027768 131.35404674 -24.87200337 130.96368561 -32 131 C-34.66953552 141.9491609 -37.0286225 152.9035342 -39 164 C-42.01031744 164.93423645 -42.86650268 165.04449911 -46 164 C-45.37263038 152.38284524 -43.29730653 141.14803636 -40 130 C-40.96486328 129.77449463 -40.96486328 129.77449463 -41.94921875 129.54443359 C-84.80479414 119.43424703 -84.80479414 119.43424703 -96 106 C-98.68737761 100.50840227 -97.73708874 96.27594995 -96.4375 90.5 C-89.35016184 78.17419451 -71.61947939 72.87107203 -58.76953125 69.39697266 C-45.48210995 66 -45.48210995 66 -41 66 C-41.433125 64.88625 -41.86625 63.7725 -42.3125 62.625 C-45.09655291 55.15687704 -47.26342334 47.95502797 -48 40 C-45.36 39.67 -42.72 39.34 -40 39 C-39.18293833 42.0404598 -38.3721798 45.08256683 -37.5625 48.125 C-37.33240234 48.9809375 -37.10230469 49.836875 -36.86523438 50.71875 C-35.69469613 55.12947383 -34.64543654 59.47452542 -34 64 C-19.87467853 64.22071427 -19.87467853 64.22071427 -6.99560547 59.61132812 C-3.86714327 56.22241022 -1.95265204 52.21756862 -0.03027344 48.06054688 C1.70592873 44.58814254 4.00931836 41.5504896 6.3125 38.4375 C6.71009521 37.87893311 7.10769043 37.32036621 7.51733398 36.74487305 C10.18249555 33.00915343 13.03140163 29.49401401 16 26 C6.90058371 14.30075048 -6.52790136 2.9897073 -21 -1 C-23.8356021 -1.2750972 -23.8356021 -1.2750972 -26.625 -1.1875 C-28.00558594 -1.17783203 -28.00558594 -1.17783203 -29.4140625 -1.16796875 C-31.74658587 -1.01646043 -33.76392535 -0.65612519 -36 0 C-36 0.66 -36 1.32 -36 2 C-36.66 2 -37.32 2 -38 2 C-38.33 2.99 -38.66 3.98 -39 5 C-41.31 4.67 -43.62 4.34 -46 4 C-44.73420321 -1.90705169 -41.83611581 -4.72162254 -37 -8 C-24.40955608 -13.89339928 -10.88705567 -6.51540739 0 0 Z M21 31 C19.09910274 33.36927834 17.25568085 35.75564182 15.4375 38.1875 C14.62974121 39.26559937 14.62974121 39.26559937 13.80566406 40.36547852 C5.67556875 50.04993253 5.67556875 50.04993253 1 61 C15.19 61 29.38 61 44 61 C42.54766105 57.36915264 41.67556229 55.27287253 39.4609375 52.328125 C38.71904175 51.3371582 38.71904175 51.3371582 37.9621582 50.32617188 C37.438396 49.64103516 36.91463379 48.95589844 36.375 48.25 C35.84028076 47.54423828 35.30556152 46.83847656 34.75463867 46.11132812 C30.7543003 40.87766723 26.69778488 35.63343167 22 31 C21.67 31 21.34 31 21 31 Z M2.79199219 67.76782227 C-0.26266682 67.67719126 -2.19755596 67.76465111 -5 69 C-7.978661 72.45144307 -9.9670906 76.17716619 -11.86621094 80.28149414 C-12.74988653 82.18725528 -13.69169376 84.05385134 -14.6484375 85.92382812 C-18.61254668 93.59968061 -18.61254668 93.59968061 -18 102 C-16.96072003 104.47770208 -16.96072003 104.47770208 -15.6015625 106.8203125 C-14.88226563 108.11775391 -14.88226563 108.11775391 -14.1484375 109.44140625 C-13.64570312 110.32699219 -13.14296875 111.21257812 -12.625 112.125 C-12.13 113.01832031 -11.635 113.91164062 -11.125 114.83203125 C-7.82052086 121.92275857 -7.82052086 121.92275857 -2.19410706 126.6010437 C0.14295543 127.0259937 2.31398649 127.14113491 4.68920898 127.16113281 C6.07601112 127.17554413 6.07601112 127.17554413 7.49082947 127.19024658 C8.48256668 127.19449646 9.47430389 127.19874634 10.49609375 127.203125 C11.5217897 127.20882507 12.54748566 127.21452515 13.60426331 127.22039795 C15.77205375 127.22983643 17.93985846 127.23637735 20.10766602 127.24023438 C23.42164069 127.24995349 26.73499858 127.28099364 30.04882812 127.3125 C32.15624632 127.31902907 34.26366895 127.32427992 36.37109375 127.328125 C37.36080673 127.3404718 38.35051971 127.3528186 39.370224 127.36553955 C46.19626378 127.37050854 46.19626378 127.37050854 52 124 C53.37462671 122.37709914 53.37462671 122.37709914 54.31640625 120.5234375 C54.68652832 119.85683105 55.05665039 119.19022461 55.43798828 118.50341797 C55.80907715 117.80104004 56.18016602 117.09866211 56.5625 116.375 C56.95163574 115.65586426 57.34077148 114.93672852 57.74169922 114.19580078 C58.84463268 112.1388786 59.92560382 110.07193697 61 108 C61.49628906 107.0615625 61.99257812 106.123125 62.50390625 105.15625 C64.76613074 100.55297786 65.32243461 98.13230575 64 93 C62.81519084 90.63868642 61.6154192 88.43538169 60.25 86.1875 C59.52426253 84.95861494 58.79900241 83.72944785 58.07421875 82.5 C57.72020996 81.90574219 57.36620117 81.31148437 57.00146484 80.69921875 C55.23231807 77.6974485 53.57803279 74.63293471 51.91015625 71.57421875 C51.09632393 70.01024731 51.09632393 70.01024731 50 69 C41.65663198 67.64684971 33.10414267 67.84491087 24.67529297 67.86962891 C22.50350975 67.87499133 20.33193325 67.8696501 18.16015625 67.86328125 C15.36971811 67.85789223 12.58364386 67.89020775 9.79394531 67.95288086 C6 68 6 68 2.79199219 67.76782227 Z M60 69 C61.46346719 73.39040158 62.82110046 76.83056109 65 80.8125 C65.515625 81.76769531 66.03125 82.72289063 66.5625 83.70703125 C67.7945211 86.11404162 67.7945211 86.11404162 70 87 C70.86555948 84.90049414 71.71711277 82.7952093 72.5625 80.6875 C73.03816406 79.51574219 73.51382813 78.34398438 74.00390625 77.13671875 C75.33297345 74.01803916 75.33297345 74.01803916 74 71 C69.38 70.34 64.76 69.68 60 69 Z M-31 72 C-30.05023017 74.64920076 -29.09072092 77.29411973 -28.125 79.9375 C-27.72087891 81.06961914 -27.72087891 81.06961914 -27.30859375 82.22460938 C-26.08380586 86.35097092 -26.08380586 86.35097092 -23 89 C-21.68200981 86.58618654 -20.37049082 84.16922404 -19.0625 81.75 C-18.68931641 81.06808594 -18.31613281 80.38617188 -17.93164062 79.68359375 C-17.57392578 79.01972656 -17.21621094 78.35585937 -16.84765625 77.671875 C-16.51773682 77.0644043 -16.18781738 76.45693359 -15.84790039 75.83105469 C-14.95802309 73.90935018 -14.44858489 72.06548422 -14 70 C-20.01206035 69.78137962 -25.18072158 70.5330585 -31 72 Z M-75 83 C-75.83789062 83.37769531 -76.67578125 83.75539063 -77.5390625 84.14453125 C-82.971871 86.8609355 -88.05384072 90.56093672 -91 96 C-90.73992886 99.39112366 -90.2002575 100.74806314 -88.0625 103.4375 C-77.40338186 112.35635395 -64.62786123 116.04962631 -51.5 119.8125 C-50.74654297 120.03172119 -49.99308594 120.25094238 -49.21679688 120.47680664 C-45.03312938 121.63535353 -41.38583258 122.2428863 -37 122 C-34.37722229 116.44272101 -31.85390891 110.85314003 -29.625 105.125 C-29.28726563 104.26132813 -28.94953125 103.39765625 -28.6015625 102.5078125 C-27.57003597 98.20755254 -28.90098664 94.87989688 -30.75 91 C-33.45906699 85.11375518 -35.71445415 79.06044329 -38 73 C-50.12307313 73 -64.06064294 78.03183927 -75 83 Z M69 106 C67.68200981 108.41381346 66.37049082 110.83077596 65.0625 113.25 C64.68931641 113.93191406 64.31613281 114.61382812 63.93164062 115.31640625 C63.57392578 115.98027344 63.21621094 116.64414063 62.84765625 117.328125 C62.51773682 117.9355957 62.18781738 118.54306641 61.84790039 119.16894531 C60.95802309 121.09064982 60.44858489 122.93451578 60 125 C62.27141109 124.88597936 64.54214552 124.75841495 66.8125 124.625 C68.70935547 124.52058594 68.70935547 124.52058594 70.64453125 124.4140625 C74.12755234 124.23897061 74.12755234 124.23897061 77 122 C76.04996286 119.51735577 75.09050121 117.03912286 74.125 114.5625 C73.85558594 113.85544922 73.58617187 113.14839844 73.30859375 112.41992188 C72.01963058 108.50053375 72.01963058 108.50053375 69 106 Z M-24 108 C-24.86555948 110.09950586 -25.71711277 112.2047907 -26.5625 114.3125 C-27.03816406 115.48425781 -27.51382813 116.65601563 -28.00390625 117.86328125 C-29.33297345 120.98196084 -29.33297345 120.98196084 -28 124 C-21.07 124.495 -21.07 124.495 -14 125 C-15.42851234 121.42871914 -16.89474485 118.10247728 -18.625 114.6875 C-19.29402344 113.36298828 -19.29402344 113.36298828 -19.9765625 112.01171875 C-20.31429687 111.34785156 -20.65203125 110.68398437 -21 110 C-21.66 110 -22.32 110 -23 110 C-23.33 109.34 -23.66 108.68 -24 108 Z M57.70214844 131.99316406 C51.02296901 134.48186446 48.23749134 140.81213145 45.16503906 146.83691406 C43.27583026 150.34453979 40.92472933 153.48782772 38.5625 156.6875 C37.77172611 157.79528086 36.98133882 158.90333782 36.19140625 160.01171875 C34 163 34 163 31.65234375 165.64453125 C29.77953514 167.80985905 29.77953514 167.80985905 30.078125 170.1171875 C33.00703551 176.0991149 39.3461571 180.18240521 44.5 184.1875 C45.03334961 184.60338379 45.56669922 185.01926758 46.11621094 185.44775391 C54.07461935 191.50749267 63.78529902 197.61453959 74 198 C79.06093881 196.98781224 81.81629685 195.04416346 85 191 C87.61953449 185.12560167 88.52178557 179.51031151 88.4375 173.125 C88.43137695 172.31272949 88.42525391 171.50045898 88.41894531 170.66357422 C88.09042469 157.52527649 84.98139612 143.18139723 80 131 C73.98354767 127.99177383 63.98134872 130.53884238 57.70214844 131.99316406 Z M34.71484375 133.21875 C33.78402481 133.24094604 32.85320587 133.26314209 31.8941803 133.28601074 C28.90861753 133.3572293 25.92305874 133.42861297 22.9375 133.5 C20.91862005 133.54818792 18.89973985 133.59636515 16.88085938 133.64453125 C11.92056994 133.7628965 6.96028406 133.88140988 2 134 C3.20229081 137.25006805 4.48758294 139.94224818 6.57421875 142.70703125 C7.32360718 143.70573242 7.32360718 143.70573242 8.08813477 144.72460938 C8.87982056 145.75811523 8.87982056 145.75811523 9.6875 146.8125 C10.49562134 147.87500977 10.49562134 147.87500977 11.32006836 148.95898438 C16.69006417 156.41538556 16.69006417 156.41538556 23 163 C23.99 163 24.98 163 26 163 C27.8152214 161.06148327 27.8152214 161.06148327 29.5625 158.4375 C30.25601563 157.44492188 30.94953125 156.45234375 31.6640625 155.4296875 C32.44325318 154.28682961 33.22186407 153.14357629 34 152 C34.65887207 151.04528809 34.65887207 151.04528809 35.33105469 150.07128906 C36.70837784 148.07402428 38.0749348 146.0698571 39.4375 144.0625 C39.87457275 143.4243335 40.31164551 142.78616699 40.76196289 142.12866211 C42.78740455 139.10312107 44.25696805 136.55832435 45 133 C41.57265989 133 38.14141933 133.13670393 34.71484375 133.21875 Z " fill="#4D4D4D" transform="translate(115,28)"/>
<path d="M0 0 C7.77461563 5.4706499 14.42672438 12.17006719 21 19 C25.22774939 15.66267212 29.02038533 12.15074959 32.671875 8.18359375 C39.49773904 0.97694804 47.38022688 -5.17401324 57 -8 C58.1875 -6.3125 58.1875 -6.3125 59 -4 C57.08400484 0.10663809 55.03351971 1.8878785 51.125 4.0625 C42.32956258 9.37958201 35.19913066 16.73148013 28 24 C29.26806387 27.62928623 30.63294848 29.9505705 33.3125 32.6875 C39.39880784 39.28845887 44.41749397 46.71841512 49.59301758 54.03637695 C50.58759097 55.42443071 51.62026754 56.78555192 52.6784668 58.12573242 C54 60 54 60 54 62 C55.98 62 57.96 62 60 62 C60 62.33 60 62.66 60 63 C53.47692308 63.36923077 53.47692308 63.36923077 51.0625 61.5 C50.711875 61.005 50.36125 60.51 50 60 C49.01 60.495 49.01 60.495 48 61 C48 61.33 48 61.66 48 62 C46.80511963 62.02505615 45.61023926 62.0501123 44.37915039 62.07592773 C39.9117712 62.17067491 35.44452335 62.27072645 30.97729492 62.37231445 C29.05024302 62.41541043 27.12315913 62.45710127 25.19604492 62.49731445 C22.41315096 62.55563642 19.63041431 62.61914646 16.84765625 62.68359375 C15.99728287 62.70030624 15.14690948 62.71701874 14.27076721 62.73423767 C8.79406916 62.86742203 3.41970242 63.16895885 -2 64 C-2.33 64.66 -2.66 65.32 -3 66 C-2.38469925 66.00808685 -1.7693985 66.01617371 -1.13545227 66.02450562 C5.27245647 66.1106071 11.68005787 66.2101134 18.08764648 66.31738281 C20.47854447 66.35565015 22.86949959 66.39050693 25.26049805 66.421875 C28.69861256 66.46757372 32.13633452 66.52556122 35.57421875 66.5859375 C36.64210129 66.59748871 37.70998383 66.60903992 38.81022644 66.62094116 C39.81088638 66.64081085 40.81154633 66.66068054 41.8425293 66.68115234 C42.71967087 66.69447601 43.59681244 66.70779968 44.50053406 66.7215271 C47.34504346 67.03844231 49.46040081 67.67901949 52 69 C53.3125 72.125 53.3125 72.125 54 75 C52.29159719 73.36587557 51.06546953 72.13093906 50 70 C42.930019 68.63558924 35.47738782 68.86144538 28.30078125 68.90234375 C27.3397197 68.9037587 26.37865814 68.90517365 25.38847351 68.90663147 C22.36311534 68.91216325 19.33783525 68.92470227 16.3125 68.9375 C14.24283962 68.94252384 12.17317807 68.94708519 10.10351562 68.95117188 C5.068981 68.96211019 0.03450367 68.97932638 -5 69 C-5.29438965 69.75176514 -5.5887793 70.50353027 -5.89208984 71.27807617 C-7.29097751 74.71487621 -8.94921533 78.00520952 -10.625 81.3125 C-10.94984375 81.95767578 -11.2746875 82.60285156 -11.609375 83.26757812 C-12.40441956 84.84597541 -13.20195634 86.42311694 -14 88 C-14.33 88 -14.66 88 -15 88 C-15 86.35 -15 84.7 -15 83 C-14.34 83 -13.68 83 -13 83 C-12.67 81.02 -12.34 79.04 -12 77 C-13.98 76.505 -13.98 76.505 -16 76 C-16.12375 76.7425 -16.2475 77.485 -16.375 78.25 C-16.95486701 80.80141485 -17.73708739 82.7267573 -19 85 C-19.66 85 -20.32 85 -21 85 C-19.50111257 80.00370856 -17.38829052 75.61736167 -15 71 C-19.62 71.33 -24.24 71.66 -29 72 C-29.19557032 74.99257025 -29.19557032 74.99257025 -27.9375 77.5 C-27 80 -27 80 -28 83 C-28.66 81.02 -29.32 79.04 -30 77 C-31.485 77.495 -31.485 77.495 -33 78 C-32.505 82.455 -32.505 82.455 -32 87 C-34.68143738 84.31856262 -35.49156295 83.34103049 -36.6875 80 C-36.93886719 79.319375 -37.19023438 78.63875 -37.44921875 77.9375 C-38 76 -38 76 -38 73 C-56.89177056 77.27549908 -56.89177056 77.27549908 -75 84 C-75.845625 84.38800781 -76.69125 84.77601562 -77.5625 85.17578125 C-82.72163656 87.78080579 -87.07475923 90.90138757 -90 96 C-90.41518518 98.67412158 -90.41518518 98.67412158 -89 101 C-85.51901135 104.8916316 -81.88833173 107.55523502 -77.25 109.875 C-76.5811377 110.21015625 -75.91227539 110.5453125 -75.22314453 110.890625 C-63.88474973 116.24647498 -49.63382355 121.37151475 -37 121 C-36.01 118.36 -35.02 115.72 -34 113 C-32.86242052 117.55031791 -33.5716221 119.63084406 -35 124 C-35.66 124 -36.32 124 -37 124 C-36.67 125.98 -36.34 127.96 -36 130 C-35.01 130 -34.02 130 -33 130 C-31.33333333 130 -29.66666667 130 -28 130 C-29.32 130.33 -30.64 130.66 -32 131 C-34.66953552 141.9491609 -37.0286225 152.9035342 -39 164 C-42.01031744 164.93423645 -42.86650268 165.04449911 -46 164 C-45.37263038 152.38284524 -43.29730653 141.14803636 -40 130 C-40.96486328 129.77449463 -40.96486328 129.77449463 -41.94921875 129.54443359 C-84.80479414 119.43424703 -84.80479414 119.43424703 -96 106 C-98.68737761 100.50840227 -97.73708874 96.27594995 -96.4375 90.5 C-89.35016184 78.17419451 -71.61947939 72.87107203 -58.76953125 69.39697266 C-45.48210995 66 -45.48210995 66 -41 66 C-41.433125 64.88625 -41.86625 63.7725 -42.3125 62.625 C-45.09655291 55.15687704 -47.26342334 47.95502797 -48 40 C-45.36 39.67 -42.72 39.34 -40 39 C-39.18293833 42.0404598 -38.3721798 45.08256683 -37.5625 48.125 C-37.33240234 48.9809375 -37.10230469 49.836875 -36.86523438 50.71875 C-35.69469613 55.12947383 -34.64543654 59.47452542 -34 64 C-19.87467853 64.22071427 -19.87467853 64.22071427 -6.99560547 59.61132812 C-3.86714327 56.22241022 -1.95265204 52.21756862 -0.03027344 48.06054688 C1.70592873 44.58814254 4.00931836 41.5504896 6.3125 38.4375 C6.71009521 37.87893311 7.10769043 37.32036621 7.51733398 36.74487305 C10.18249555 33.00915343 13.03140163 29.49401401 16 26 C6.90058371 14.30075048 -6.52790136 2.9897073 -21 -1 C-23.8356021 -1.2750972 -23.8356021 -1.2750972 -26.625 -1.1875 C-28.00558594 -1.17783203 -28.00558594 -1.17783203 -29.4140625 -1.16796875 C-31.74658587 -1.01646043 -33.76392535 -0.65612519 -36 0 C-36 0.66 -36 1.32 -36 2 C-36.66 2 -37.32 2 -38 2 C-38.33 2.99 -38.66 3.98 -39 5 C-41.31 4.67 -43.62 4.34 -46 4 C-44.73420321 -1.90705169 -41.83611581 -4.72162254 -37 -8 C-24.40955608 -13.89339928 -10.88705567 -6.51540739 0 0 Z M21 31 C19.09910274 33.36927834 17.25568085 35.75564182 15.4375 38.1875 C14.62974121 39.26559937 14.62974121 39.26559937 13.80566406 40.36547852 C5.67556875 50.04993253 5.67556875 50.04993253 1 61 C15.19 61 29.38 61 44 61 C42.54766105 57.36915264 41.67556229 55.27287253 39.4609375 52.328125 C38.71904175 51.3371582 38.71904175 51.3371582 37.9621582 50.32617188 C37.438396 49.64103516 36.91463379 48.95589844 36.375 48.25 C35.84028076 47.54423828 35.30556152 46.83847656 34.75463867 46.11132812 C30.7543003 40.87766723 26.69778488 35.63343167 22 31 C21.67 31 21.34 31 21 31 Z " fill="#5E5E5E" transform="translate(115,28)"/>
<path d="M0 0 C2 1 2 1 3 3 C5.02463255 3.65213292 5.02463255 3.65213292 7 4 C5.72706733 7.46116453 4.26594043 10.31411826 2.125 13.3125 C1.51914063 14.16714844 0.91328125 15.02179688 0.2890625 15.90234375 C-1.4975507 18.32006434 -3.31384158 20.69796992 -5.1640625 23.06640625 C-5.71336426 23.77692139 -6.26266602 24.48743652 -6.82861328 25.21948242 C-7.93299049 26.64375154 -9.04842028 28.05952633 -10.17529297 29.46606445 C-10.68463379 30.12437256 -11.19397461 30.78268066 -11.71875 31.4609375 C-12.18216797 32.04665527 -12.64558594 32.63237305 -13.12304688 33.23583984 C-14.18738362 34.9830056 -14.18738362 34.9830056 -13.78857422 37.06396484 C-12.52688959 40.16153733 -10.08192268 42.08386885 -7.625 44.25 C-7.08552734 44.73162598 -6.54605469 45.21325195 -5.99023438 45.70947266 C3.79326167 54.32295412 15.31043894 63.72620878 29 64 C32.20898563 63.2086563 32.20898563 63.2086563 35 62 C35.99 61.67 36.98 61.34 38 61 C39.14228658 58.24236568 39.14228658 58.24236568 40 55 C40.66666667 53 41.33333333 51 42 49 C42.33 49 42.66 49 43 49 C43.495 52.465 43.495 52.465 44 56 C43.34 56 42.68 56 42 56 C41.67 57.65 41.34 59.3 41 61 C41.66 61 42.32 61 43 61 C43.3125 63.25 43.3125 63.25 43 66 C38.54560044 70.58541131 33.62035549 72.06777496 27.375 72.4375 C11.60109106 72.08223178 -1.7739527 59.84101549 -13 50 C-14.43586427 48.76892293 -15.87297854 47.53929865 -17.3125 46.3125 C-18.6428125 45.1678125 -18.6428125 45.1678125 -20 44 C-24.038857 46.18141474 -26.81343443 48.71700605 -29.9375 52.0625 C-40.13621694 62.57282973 -53.67979954 73.14858688 -68.8359375 74.140625 C-74.42791413 73.77724746 -79.83623944 71.80169443 -84 68 C-83.67 67.01 -83.34 66.02 -83 65 C-76.375 63.875 -76.375 63.875 -73 65 C-66.86499286 65.41593269 -62.55062703 64.58391258 -57 62 C-56.34773438 61.71769531 -55.69546875 61.43539062 -55.0234375 61.14453125 C-44.29815027 55.90239648 -35.28557321 46.43830267 -27 38 C-28.30253999 35.2018944 -29.7439911 32.91026032 -31.71484375 30.5390625 C-32.23626953 29.90226562 -32.75769531 29.26546875 -33.29492188 28.609375 C-34.38454896 27.2930122 -35.47568107 25.97789366 -36.56835938 24.6640625 C-39.60767383 20.94643003 -42.03323045 17.42694471 -44 13 C-42.5459375 12.814375 -42.5459375 12.814375 -41.0625 12.625 C-40.051875 12.41875 -39.04125 12.2125 -38 12 C-37.67 11.34 -37.34 10.68 -37 10 C-36.33613281 10.86882812 -35.67226562 11.73765625 -34.98828125 12.6328125 C-34.09642033 13.7969257 -33.2044895 14.96098533 -32.3125 16.125 C-31.87744141 16.69476563 -31.44238281 17.26453125 -30.99414062 17.8515625 C-29.67205841 19.57516598 -28.33887056 21.2894109 -27 23 C-26.33556885 23.85803223 -26.33556885 23.85803223 -25.65771484 24.73339844 C-22.92830805 28.16331833 -22.92830805 28.16331833 -19 30 C-18.74476563 29.2678125 -18.48953125 28.535625 -18.2265625 27.78125 C-16.93383718 24.84997475 -15.45734826 22.9224928 -13.375 20.5 C-8.19419966 14.21105773 -3.64895255 7.2979051 0 0 Z " fill="#484848" transform="translate(160,161)"/>
<path d="M0 0 C5.9525177 3.54434145 9.19068256 8.47240695 11.125 15.01171875 C12.33744929 21.56111003 10.68528716 27.57553813 7.5625 33.375 C3.42186336 38.43577812 -0.84960164 40.96975528 -7.2734375 41.6953125 C-14.94472543 41.98515965 -20.37997734 40.95250324 -26.1875 35.83203125 C-30.74885206 31.04041863 -32.33302459 26.46912999 -32.5 19.92578125 C-32.19543055 13.71066083 -30.54220229 9.08703069 -26.4375 4.375 C-19.09165073 -2.10094607 -9.15792714 -4.21194741 0 0 Z " fill="#292A27" transform="translate(148.4375,105.625)"/>
<path d="M0 0 C0.99 0.66 1.98 1.32 3 2 C2.34 3.98 1.68 5.96 1 8 C0.34 8 -0.32 8 -1 8 C-0.938125 9.03125 -0.87625 10.0625 -0.8125 11.125 C-1 15 -1 15 -2.5625 18.0625 C-4.40801571 21.83377123 -4.09165252 22.94529063 -3 27 C-1.35616429 30.49328931 0.52665754 33.83442066 2.4375 37.1875 C2.94087891 38.08919922 3.44425781 38.99089844 3.96289062 39.91992188 C6.93079217 46.3111017 6.93079217 46.3111017 11.7868042 50.67466736 C14.34828254 51.05119641 16.82151038 51.16296863 19.41113281 51.20532227 C20.49195129 51.22526749 21.57276978 51.24521271 22.68634033 51.26576233 C24.42714874 51.29083107 24.42714874 51.29083107 26.203125 51.31640625 C27.39605164 51.33718735 28.58897827 51.35796844 29.8180542 51.37937927 C33.62864423 51.44476239 37.43930314 51.50370776 41.25 51.5625 C43.83334046 51.60569589 46.41667395 51.64931052 49 51.69335938 C55.33326052 51.80043234 61.66658956 51.90221972 68 52 C68.495 53.98 68.495 53.98 69 56 C70.65 56 72.3 56 74 56 C74 56.33 74 56.66 74 57 C73.05125 57.0825 72.1025 57.165 71.125 57.25 C67.89538209 57.65074923 67.89538209 57.65074923 66.625 60.0625 C66.41875 60.701875 66.2125 61.34125 66 62 C64.02 62 62.04 62 60 62 C60 61.01 60 60.02 60 59 C45.48 59 30.96 59 16 59 C17.65 61.31 19.3 63.62 21 66 C21 67.32 21 68.64 21 70 C19.25 71.125 19.25 71.125 17 72 C15.0234375 71.3984375 15.0234375 71.3984375 13 70 C12.07812949 68.18978154 11.20862997 66.35251105 10.375 64.5 C8.62254766 61.56904259 7.33944064 59.47129698 4.03222656 58.30761719 C-0.5637258 57.40523386 -5.18624887 57.2091931 -9.859375 57.09277344 C-12.9401525 56.95925434 -15.95428455 56.46447161 -19 56 C-19.99 56 -20.98 56 -22 56 C-22.33 56.66 -22.66 57.32 -23 58 C-23.495 56.515 -23.495 56.515 -24 55 C-23.34 55 -22.68 55 -22 55 C-22.33 53.02 -22.66 51.04 -23 49 C-22.34 49 -21.68 49 -21 49 C-20.896875 48.0925 -20.79375 47.185 -20.6875 46.25 C-19.77305154 39.84886077 -18.34816226 33.27816297 -15.88671875 27.29296875 C-14.76845829 24.40125558 -15.09724292 22.93396051 -16 20 C-16.309375 19.401875 -16.61875 18.80375 -16.9375 18.1875 C-19.6554229 12.59177639 -20.2543679 7.10482964 -20 1 C-18.125 1.125 -18.125 1.125 -16 2 C-14.75 5.0625 -14.75 5.0625 -14 8 C-13.34 8 -12.68 8 -12 8 C-11.34 9.65 -10.68 11.3 -10 13 C-9.54625 12.505 -9.0925 12.01 -8.625 11.5 C-7 10 -7 10 -5 10 C-4.80664062 9.36191406 -4.61328125 8.72382812 -4.4140625 8.06640625 C-4.15367188 7.24011719 -3.89328125 6.41382812 -3.625 5.5625 C-3.24214844 4.32693359 -3.24214844 4.32693359 -2.8515625 3.06640625 C-2 1 -2 1 0 0 Z M-10 33 C-10.86555948 35.09950586 -11.71711277 37.2047907 -12.5625 39.3125 C-13.03816406 40.48425781 -13.51382813 41.65601563 -14.00390625 42.86328125 C-15.33297345 45.98196084 -15.33297345 45.98196084 -14 49 C-7.07 49.495 -7.07 49.495 0 50 C-1.42851234 46.42871914 -2.89474485 43.10247728 -4.625 39.6875 C-5.29402344 38.36298828 -5.29402344 38.36298828 -5.9765625 37.01171875 C-6.31429687 36.34785156 -6.65203125 35.68398437 -7 35 C-7.66 35 -8.32 35 -9 35 C-9.33 34.34 -9.66 33.68 -10 33 Z " fill="#494949" transform="translate(101,103)"/>
<path d="M0 0 C7.77461563 5.4706499 14.42672438 12.17006719 21 19 C25.22774939 15.66267212 29.02038533 12.15074959 32.671875 8.18359375 C39.49773904 0.97694804 47.38022688 -5.17401324 57 -8 C58.1875 -6.3125 58.1875 -6.3125 59 -4 C57.08400484 0.10663809 55.03351971 1.8878785 51.125 4.0625 C42.32956258 9.37958201 35.19913066 16.73148013 28 24 C29.34394621 27.93485283 31.04664014 30.46885207 33.875 33.5 C34.58527344 34.28246094 35.29554688 35.06492188 36.02734375 35.87109375 C37.48612149 37.44541824 38.95825231 39.00739346 40.4375 40.5625 C42.65725263 44.02531411 42.72320551 46.91728133 43 51 C39.19913918 50.74879368 37.44320552 50.42695465 34.65625 47.7421875 C33.9446875 46.79601562 33.233125 45.84984375 32.5 44.875 C31.73816406 43.88628906 30.97632813 42.89757812 30.19140625 41.87890625 C29.46824219 40.92886719 28.74507813 39.97882813 28 39 C26.82465696 37.59391477 25.63925428 36.19607999 24.4375 34.8125 C23.633125 33.884375 22.82875 32.95625 22 32 C21.401875 32.763125 20.80375 33.52625 20.1875 34.3125 C19.465625 35.199375 18.74375 36.08625 18 37 C17.525625 37.61875 17.05125 38.2375 16.5625 38.875 C15 40 15 40 12.3125 39.6875 C11.549375 39.460625 10.78625 39.23375 10 39 C9.34 40.32 8.68 41.64 8 43 C7.34 42.34 6.68 41.68 6 41 C7.40398279 36.89889238 9.37087038 34.01910841 12.125 30.6875 C12.84945312 29.80449219 13.57390625 28.92148437 14.3203125 28.01171875 C14.87460938 27.34785156 15.42890625 26.68398438 16 26 C6.90058371 14.30075048 -6.52790136 2.9897073 -21 -1 C-23.8356021 -1.2750972 -23.8356021 -1.2750972 -26.625 -1.1875 C-27.54539062 -1.18105469 -28.46578125 -1.17460937 -29.4140625 -1.16796875 C-31.74658587 -1.01646043 -33.76392535 -0.65612519 -36 0 C-36 0.66 -36 1.32 -36 2 C-36.66 2 -37.32 2 -38 2 C-38.33 2.99 -38.66 3.98 -39 5 C-41.31 4.67 -43.62 4.34 -46 4 C-44.73420321 -1.90705169 -41.83611581 -4.72162254 -37 -8 C-24.40955608 -13.89339928 -10.88705567 -6.51540739 0 0 Z " fill="#474747" transform="translate(115,28)"/>
<path d="M0 0 C4.35812101 4.35812101 4.19036113 11.69362163 4.375 17.5625 C4.1823082 32.22189925 1.07897748 46.96680484 -3 61 C-2.32122803 61.15033691 -1.64245605 61.30067383 -0.94311523 61.45556641 C41.25494277 70.90593132 41.25494277 70.90593132 53 85 C55.37333148 89.74666296 55.39130529 93.96527653 54 99 C51.05209657 104.59085133 51.05209657 104.59085133 47.75 105.875 C47.1725 105.91625 46.595 105.9575 46 106 C44.8125 103.3125 44.8125 103.3125 44 100 C44.9873454 98.32580562 45.98812105 96.65948148 47 95 C47.0951654 91.33025482 47.0951654 91.33025482 46 88 C44.15350488 86.88373179 44.15350488 86.88373179 42 86 C40.76272202 85.22107125 39.53370399 84.42889529 38.3125 83.625 C25.0174576 75.32772901 9.22076388 71.96696348 -6 69 C-6.99 71.97 -7.98 74.94 -9 78 C-10.39195915 73.82412255 -8.82323219 71.86525224 -7 68 C-6.01 68 -5.02 68 -4 68 C-4.26676204 66.01508358 -4.26676204 66.01508358 -5 64 C-5.99 63.67 -6.98 63.34 -8 63 C-8 61.68 -8 60.36 -8 59 C-8.66 58.67 -9.32 58.34 -10 58 C-9.38622658 52.59879389 -8.14750203 47.50133244 -6.71875 42.2578125 C-4.58430017 32.58318665 -4.99849514 23.00655952 -5.390625 13.15429688 C-5.54806082 4.60848368 -5.54806082 4.60848368 -2.484375 1.20703125 C-1.66453125 0.80871094 -0.8446875 0.41039062 0 0 Z " fill="#565656" transform="translate(204,32)"/>
<path d="M0 0 C-0.1875 2.3125 -0.1875 2.3125 -1 5 C-1.75152344 5.44988281 -2.50304687 5.89976563 -3.27734375 6.36328125 C-6.32518026 8.19548139 -8.1298119 10.12902645 -10.375 12.875 C-11.08398438 13.71804687 -11.79296875 14.56109375 -12.5234375 15.4296875 C-14.20053131 17.86848622 -14.20053131 17.86848622 -14.0390625 20.5078125 C-11.64800432 26.24275656 -6.60584601 29.1963852 -1.25 31.875 C-0.5811377 32.21015625 0.08772461 32.5453125 0.77685547 32.890625 C12.11525027 38.24647498 26.36617645 43.37151475 39 43 C39.99 40.36 40.98 37.72 42 35 C43.13757948 39.55031791 42.4283779 41.63084406 41 46 C40.34 46 39.68 46 39 46 C39.495 48.97 39.495 48.97 40 52 C40.99 52 41.98 52 43 52 C44.66666667 52 46.33333333 52 48 52 C46.68 52.33 45.36 52.66 44 53 C41.33046448 63.9491609 38.9713775 74.9035342 37 86 C33.98968256 86.93423645 33.13349732 87.04449911 30 86 C30.62736962 74.38284524 32.70269347 63.14803636 36 52 C35.35675781 51.84966309 34.71351562 51.69932617 34.05078125 51.54443359 C-8.80479414 41.43424703 -8.80479414 41.43424703 -20 28 C-22.68737761 22.50840227 -21.73708874 18.27594995 -20.4375 12.5 C-17.59183412 7.55101586 -12.69162327 4.12774885 -8 1 C-5.29727414 0.44842329 -2.76011506 0 0 0 Z " fill="#494949" transform="translate(39,106)"/>
<path d="M0 0 C2.475 0.99 2.475 0.99 5 2 C5 2.66 5 3.32 5 4 C6.134375 3.98839844 7.26875 3.97679688 8.4375 3.96484375 C9.95833167 3.9554559 11.47916514 3.94635678 13 3.9375 C14.11568359 3.92493164 14.11568359 3.92493164 15.25390625 3.91210938 C20.26148844 3.89033728 25.04279032 4.28458451 30 5 C30 4.34 30 3.68 30 3 C31.32 3.33 32.64 3.66 34 4 C34 5.32 34 6.64 34 8 C35.45833358 9.62514468 35.45833358 9.62514468 37 11 C37 11.66 37 12.32 37 13 C36.01 13 35.02 13 34 13 C33.74605469 14.07378906 33.49210937 15.14757812 33.23046875 16.25390625 C32.8831341 17.69018198 32.53545967 19.12637556 32.1875 20.5625 C32.02185547 21.26697266 31.85621094 21.97144531 31.68554688 22.69726562 C30.54083058 27.38412291 29.01178987 31.61326048 27 36 C26.34 36 25.68 36 25 36 C24.814375 36.86625 24.814375 36.86625 24.625 37.75 C23.99351176 40.02335767 23.11141809 41.9253529 22 44 C19 42 19 42 18.5 39.5625 C18.335 38.716875 18.17 37.87125 18 37 C17.36384766 36.38125 17.36384766 36.38125 16.71484375 35.75 C14.30693264 33.29272397 12.74273685 30.41129667 11.0625 27.4375 C10.70768555 26.8185083 10.35287109 26.1995166 9.98730469 25.56176758 C7.49149799 21.1183362 5.53982804 16.65772751 3.984375 11.79296875 C3.17436152 9.84091915 3.17436152 9.84091915 1.25372314 9.40077209 C-1.2125859 8.96219656 -3.53887129 8.83895935 -6.04394531 8.79467773 C-7.04468079 8.77473251 -8.04541626 8.75478729 -9.07647705 8.73423767 C-10.14952087 8.71752518 -11.2225647 8.70081268 -12.328125 8.68359375 C-13.43226746 8.66281265 -14.53640991 8.64203156 -15.67401123 8.62062073 C-19.19927783 8.55526354 -22.72461859 8.49630436 -26.25 8.4375 C-28.64063265 8.39430164 -31.03125782 8.35068693 -33.421875 8.30664062 C-39.28117173 8.19959628 -45.14054214 8.09780415 -51 8 C-51 5 -51 5 -50 4 C-43.78311798 3.1481151 -37.6393824 2.81003767 -31.37109375 2.68359375 C-30.49598648 2.66281265 -29.62087921 2.64203156 -28.71925354 2.62062073 C-25.95873898 2.55590224 -23.19813983 2.49660659 -20.4375 2.4375 C-18.55142399 2.39424063 -16.66535614 2.35062415 -14.77929688 2.30664062 C-10.18628178 2.2003021 -5.59318271 2.09882254 -1 2 C-0.67 1.34 -0.34 0.68 0 0 Z M12 10 C13.46346719 14.39040158 14.82110046 17.83056109 17 21.8125 C17.515625 22.76769531 18.03125 23.72289062 18.5625 24.70703125 C19.7945211 27.11404162 19.7945211 27.11404162 22 28 C22.86555948 25.90049414 23.71711277 23.7952093 24.5625 21.6875 C25.03816406 20.51574219 25.51382813 19.34398437 26.00390625 18.13671875 C27.33297345 15.01803916 27.33297345 15.01803916 26 12 C21.38 11.34 16.76 10.68 12 10 Z " fill="#3E3E3E" transform="translate(163,87)"/>
<path d="M0 0 C4.36449976 2.30577346 7.03201106 4.44255192 9 9 C10.37248533 15.0781493 10.1247419 18.39701453 7 24 C3.97119948 28.03840069 -0.0395497 30.22274634 -5 31 C-11.04041921 30.20467814 -15.11761817 27.70591737 -19 23 C-21.84234025 18.73648963 -21.62452246 15.00398622 -21 10 C-18.64327908 5.10527193 -15.67187656 2.68384398 -11 0 C-7.13273219 -1.28908927 -3.89196681 -0.95087826 0 0 Z " fill="#2F302C" transform="translate(75,35)"/>
<path d="M0 0 C4.61635376 2.11442481 7.7212758 4.14763904 9.578125 9.04296875 C10.36870605 14.5770361 9.92209568 19.02482512 7.890625 24.23046875 C7.230625 24.23046875 6.570625 24.23046875 5.890625 24.23046875 C5.890625 24.89046875 5.890625 25.55046875 5.890625 26.23046875 C0.82707599 29.17653363 -3.09644212 31.10507717 -9.109375 30.23046875 C-12.87454838 28.6324138 -16.62580476 26.54189574 -19.109375 23.23046875 C-20.78921733 17.8242156 -21.00842142 11.75903681 -19.109375 6.41796875 C-13.87499676 0.69286755 -7.79026466 -2.84200396 0 0 Z " fill="#30312F" transform="translate(79.109375,194.76953125)"/>
<path d="M0 0 C4.23728117 1.54945356 7.94963868 3.89927737 10 8 C11.40433385 14.01857366 11.22425516 18.6108878 8 24 C5.1769369 27.03329121 2.05042832 29.77504294 -2.171875 30.23828125 C-7.99751765 30.40598914 -11.4923351 30.07836348 -16 26 C-19.93626932 21.64938655 -20.63883919 18.08222994 -20.3828125 12.3984375 C-19.59535241 7.46475896 -16.95907713 4.86773645 -13.375 1.625 C-8.78792764 -0.5835904 -5.00463659 -0.79187288 0 0 Z " fill="#2F302D" transform="translate(239,129)"/>
<path d="M0 0 C4.03669415 3.91024349 5.27349486 6.95981909 5.43359375 12.4453125 C5.36994944 17.30349472 4.4571665 19.9455742 1.12109375 23.6328125 C-3.23047488 27.56994603 -6.79354903 28.26272228 -12.4765625 28.0234375 C-17.01196319 27.28597397 -19.73791408 24.9311829 -22.69140625 21.5703125 C-25.40973581 17.13514321 -25.34458524 12.66904449 -24.87890625 7.6328125 C-23.11315773 2.43366408 -20.6770524 0.22381142 -15.87890625 -2.3671875 C-10.72043918 -4.31903991 -4.43879255 -3.22989063 0 0 Z " fill="#30302E" transform="translate(199.87890625,9.3671875)"/>
<path d="M0 0 C3 2 3 2 3.6875 4.625 C3.790625 5.40875 3.89375 6.1925 4 7 C5.74271938 4.702779 7.39911152 2.40133271 9 0 C10.67531673 3.93387538 12.33875803 7.87266263 14 11.8125 C14.47695312 12.93205078 14.95390625 14.05160156 15.4453125 15.20507812 C15.89648438 16.27822266 16.34765625 17.35136719 16.8125 18.45703125 C17.44091797 19.9416687 17.44091797 19.9416687 18.08203125 21.45629883 C19 24 19 24 19 27 C19.99 27.33 20.98 27.66 22 28 C16.25 29.125 16.25 29.125 14 28 C12.35 29.98 10.7 31.96 9 34 C11.31 34 13.62 34 16 34 C16.495 37.96 16.495 37.96 17 42 C16.71125 41.38125 16.4225 40.7625 16.125 40.125 C15.06279958 37.86674235 15.06279958 37.86674235 13 36 C9.16087112 36.00122747 5.36238808 36.66630689 1.5625 37.1875 C0.49966797 37.31447266 -0.56316406 37.44144531 -1.65820312 37.57226562 C-2.67720703 37.70697266 -3.69621094 37.84167969 -4.74609375 37.98046875 C-5.68122803 38.10317139 -6.6163623 38.22587402 -7.57983398 38.35229492 C-10.24252703 39.06490711 -11.27995103 39.89142569 -13 42 C-12.67 41.236875 -12.34 40.47375 -12 39.6875 C-10.82563314 37.00930865 -10.82563314 37.00930865 -11 34 C-11 33.34 -11 32.68 -11 32 C-13.31 32 -15.62 32 -18 32 C-17.2575 31.3090625 -16.515 30.618125 -15.75 29.90625 C-7.88717231 22.0212735 -3.57095142 10.33515747 0 0 Z M4 11 C2.68200981 13.41381346 1.37049082 15.83077596 0.0625 18.25 C-0.31068359 18.93191406 -0.68386719 19.61382812 -1.06835938 20.31640625 C-1.42607422 20.98027344 -1.78378906 21.64414063 -2.15234375 22.328125 C-2.48226318 22.9355957 -2.81218262 23.54306641 -3.15209961 24.16894531 C-4.04197691 26.09064982 -4.55141511 27.93451578 -5 30 C-2.72858891 29.88597936 -0.45785448 29.75841495 1.8125 29.625 C3.70935547 29.52058594 3.70935547 29.52058594 5.64453125 29.4140625 C9.12755234 29.23897061 9.12755234 29.23897061 12 27 C11.04996286 24.51735577 10.09050121 22.03912286 9.125 19.5625 C8.85558594 18.85544922 8.58617187 18.14839844 8.30859375 17.41992188 C7.01963058 13.50053375 7.01963058 13.50053375 4 11 Z " fill="#585858" transform="translate(180,123)"/>
<path d="M0 0 C4.35812101 4.35812101 4.19036113 11.69362163 4.375 17.5625 C4.1823082 32.22189925 1.07897748 46.96680484 -3 61 C-1.35 61.66 0.3 62.32 2 63 C2 63.66 2 64.32 2 65 C2.99 65.33 3.98 65.66 5 66 C5.33 67.32 5.66 68.64 6 70 C2.7 69.34 -0.6 68.68 -4 68 C-4.33 66.68 -4.66 65.36 -5 64 C-5.99 63.67 -6.98 63.34 -8 63 C-8 61.68 -8 60.36 -8 59 C-8.66 58.67 -9.32 58.34 -10 58 C-9.38622658 52.59879389 -8.14750203 47.50133244 -6.71875 42.2578125 C-4.58430017 32.58318665 -4.99849514 23.00655952 -5.390625 13.15429688 C-5.54806082 4.60848368 -5.54806082 4.60848368 -2.484375 1.20703125 C-1.66453125 0.80871094 -0.8446875 0.41039062 0 0 Z " fill="#3C3C3B" transform="translate(204,32)"/>
<path d="M0 0 C3.88179986 2.73885019 7.47092571 5.82383314 11 9 C7.48283697 9 6.62878252 8.17554415 4 6 C2.02 6.99 2.02 6.99 0 8 C0.66 8.99 1.32 9.98 2 11 C-2.83031078 8.73800081 -7.22054294 5.73539185 -11.7109375 2.875 C-16.70851821 0.02602287 -20.87500577 -1.27658442 -26.625 -1.1875 C-27.54539062 -1.18105469 -28.46578125 -1.17460937 -29.4140625 -1.16796875 C-31.74658587 -1.01646043 -33.76392535 -0.65612519 -36 0 C-36 0.66 -36 1.32 -36 2 C-36.66 2 -37.32 2 -38 2 C-38.33 2.99 -38.66 3.98 -39 5 C-41.31 4.67 -43.62 4.34 -46 4 C-44.73420321 -1.90705169 -41.83611581 -4.72162254 -37 -8 C-24.47220021 -13.8640765 -10.81032789 -6.57849473 0 0 Z " fill="#4F4F4F" transform="translate(115,28)"/>
<path d="M0 0 C0.33 0 0.66 0 1 0 C1.495 3.465 1.495 3.465 2 7 C1.34 7 0.68 7 0 7 C-0.33 8.65 -0.66 10.3 -1 12 C-0.34 12 0.32 12 1 12 C1.3125 14.25 1.3125 14.25 1 17 C-3.45439956 21.58541131 -8.37964451 23.06777496 -14.625 23.4375 C-24.37319645 23.21794603 -34.25399173 17.6474881 -42 12 C-42.66 11.01 -43.32 10.02 -44 9 C-42.35 9 -40.7 9 -39 9 C-39 7.68 -39 6.36 -39 5 C-36.43010886 5.95453099 -34.09314811 6.94307616 -31.75 8.375 C-25.86139816 11.85462836 -19.93527117 14.73829165 -13 15 C-9.79101437 14.2086563 -9.79101437 14.2086563 -7 13 C-6.01 12.67 -5.02 12.34 -4 12 C-2.85771342 9.24236568 -2.85771342 9.24236568 -2 6 C-1.33333333 4 -0.66666667 2 0 0 Z " fill="#515151" transform="translate(202,210)"/>
<path d="M0 0 C2.475 0.99 2.475 0.99 5 2 C5 2.66 5 3.32 5 4 C6.98 4 8.96 4 11 4 C11.495 5.485 11.495 5.485 12 7 C11.67 7.66 11.34 8.32 11 9 C10.34 9 9.68 9 9 9 C9.495 12.465 9.495 12.465 10 16 C8.68 16 7.36 16 6 16 C5.5875 15.030625 5.175 14.06125 4.75 13.0625 C3.39124572 9.93039463 3.39124572 9.93039463 1.20587158 9.32142639 C-1.23183567 8.96621829 -3.58013114 8.83823001 -6.04394531 8.79467773 C-7.04468079 8.77473251 -8.04541626 8.75478729 -9.07647705 8.73423767 C-10.14952087 8.71752518 -11.2225647 8.70081268 -12.328125 8.68359375 C-13.43226746 8.66281265 -14.53640991 8.64203156 -15.67401123 8.62062073 C-19.19927783 8.55526354 -22.72461859 8.49630436 -26.25 8.4375 C-28.64063265 8.39430164 -31.03125782 8.35068693 -33.421875 8.30664062 C-39.28117173 8.19959628 -45.14054214 8.09780415 -51 8 C-51 5 -51 5 -50 4 C-43.78311798 3.1481151 -37.6393824 2.81003767 -31.37109375 2.68359375 C-30.49598648 2.66281265 -29.62087921 2.64203156 -28.71925354 2.62062073 C-25.95873898 2.55590224 -23.19813983 2.49660659 -20.4375 2.4375 C-18.55142399 2.39424063 -16.66535614 2.35062415 -14.77929688 2.30664062 C-10.18628178 2.2003021 -5.59318271 2.09882254 -1 2 C-0.67 1.34 -0.34 0.68 0 0 Z " fill="#1F1F1F" transform="translate(163,87)"/>
<path d="M0 0 C0.66 0.33 1.32 0.66 2 1 C1.67 1.66 1.34 2.32 1 3 C1.95865509 5.33075929 1.95865509 5.33075929 5 7 C-4.63612602 13.49768236 -15.73516505 20.81670275 -27.921875 18.6953125 C-31.67664373 17.4390177 -34.83248914 15.33895216 -38 13 C-37.67 12.01 -37.34 11.02 -37 10 C-30.375 8.875 -30.375 8.875 -27 10 C-17.36142596 10.65346265 -10.06934054 7.07263523 -2 2 C-1.34 1.34 -0.68 0.68 0 0 Z " fill="#3E3E3C" transform="translate(114,216)"/>
<path d="M0 0 C0.99 0.66 1.98 1.32 3 2 C2.34 3.98 1.68 5.96 1 8 C0.34 8 -0.32 8 -1 8 C-0.938125 9.03125 -0.87625 10.0625 -0.8125 11.125 C-1.01135595 15.23468973 -1.94467803 17.48882496 -4 21 C-4.66 21 -5.32 21 -6 21 C-6.33 22.32 -6.66 23.64 -7 25 C-7.33 24.34 -7.66 23.68 -8 23 C-8.6496875 24.2065625 -8.6496875 24.2065625 -9.3125 25.4375 C-11 28 -11 28 -14 29 C-14.12117188 28.39671875 -14.24234375 27.7934375 -14.3671875 27.171875 C-14.53476563 26.37265625 -14.70234375 25.5734375 -14.875 24.75 C-15.03742188 23.96109375 -15.19984375 23.1721875 -15.3671875 22.359375 C-15.99473339 20.01963601 -16.89465864 18.14591663 -18 16 C-19.54248992 10.77267304 -20.22638956 6.43334939 -20 1 C-18.125 1.125 -18.125 1.125 -16 2 C-14.75 5.0625 -14.75 5.0625 -14 8 C-13.34 8 -12.68 8 -12 8 C-11.34 9.65 -10.68 11.3 -10 13 C-9.54625 12.505 -9.0925 12.01 -8.625 11.5 C-7 10 -7 10 -5 10 C-4.80664062 9.36191406 -4.61328125 8.72382812 -4.4140625 8.06640625 C-4.15367188 7.24011719 -3.89328125 6.41382812 -3.625 5.5625 C-3.24214844 4.32693359 -3.24214844 4.32693359 -2.8515625 3.06640625 C-2 1 -2 1 0 0 Z " fill="#3E3E3E" transform="translate(101,103)"/>
<path d="M0 0 C6.625 -0.125 6.625 -0.125 10 1 C10.66 1.99 11.32 2.98 12 4 C14.64 3.67 17.28 3.34 20 3 C18.68 3.33 17.36 3.66 16 4 C13.33046448 14.9491609 10.9713775 25.9035342 9 37 C5.98968256 37.93423645 5.13349732 38.04449911 2 37 C2.62736962 25.38284524 4.70269347 14.14803636 8 3 C5.36 2.34 2.72 1.68 0 1 C0 0.67 0 0.34 0 0 Z " fill="#5F5F5F" transform="translate(67,155)"/>
<path d="M0 0 C0.99 0 1.98 0 3 0 C3.23074219 0.61746094 3.46148437 1.23492187 3.69921875 1.87109375 C5.7707388 7.25049561 8.10637787 12.22762533 11.046875 17.1875 C12 19 12 19 12 21 C11.34 21 10.68 21 10 21 C10 20.34 10 19.68 10 19 C8.35 19 6.7 19 5 19 C5.66 20.98 6.32 22.96 7 25 C4.02753198 22.45217026 2.58464712 19.54659117 1 16 C1 15.34 1 14.68 1 14 C0.01 14 -0.98 14 -2 14 C-3.32 17.63 -4.64 21.26 -6 25 C-6.33 25 -6.66 25 -7 25 C-7.33 22.03 -7.66 19.06 -8 16 C-8.99 16.33 -9.98 16.66 -11 17 C-9.93204565 12.49933525 -8.85961414 8.2505466 -7 4 C-6.01 5.485 -6.01 5.485 -5 7 C-2.65941363 4.87219421 -1.29299694 2.88437779 0 0 Z " fill="#585858" transform="translate(93,124)"/>
<path d="M0 0 C1 3 1 3 -0.11328125 5.47265625 C-2.2317614 8.31045471 -4.14562686 9.64841523 -7.1875 11.4375 C-12.02363958 14.37005273 -16.54752682 17.51711983 -21 21 C-21.66 20.34 -22.32 19.68 -23 19 C-21.25 15.125 -21.25 15.125 -19 14 C-19.33 13.67 -19.66 13.34 -20 13 C-21.65 14.65 -23.3 16.3 -25 18 C-25.66 17.67 -26.32 17.34 -27 17 C-21.48456451 10.90057722 -8.82733034 -2.94244345 0 0 Z " fill="#4B4B4B" transform="translate(173,21)"/>
<path d="M0 0 C0.33 0.66 0.66 1.32 1 2 C0.67 2.99 0.34 3.98 0 5 C2.75641416 4.50243908 2.75641416 4.50243908 5 3 C6 2 7 1 8 0 C8 0.99 8 1.98 8 3 C10.0836309 2.85848172 12.16689938 2.71162064 14.25 2.5625 C15.99023438 2.44068359 15.99023438 2.44068359 17.765625 2.31640625 C20.30977376 2.06752213 22.55953248 1.71885058 25 1 C25 4 25 4 23 6.1875 C22.34 6.785625 21.68 7.38375 21 8 C23.31 8 25.62 8 28 8 C28.495 11.96 28.495 11.96 29 16 C28.71125 15.38125 28.4225 14.7625 28.125 14.125 C27.06279958 11.86674235 27.06279958 11.86674235 25 10 C21.16087112 10.00122747 17.36238808 10.66630689 13.5625 11.1875 C11.96825195 11.37795898 11.96825195 11.37795898 10.34179688 11.57226562 C9.32279297 11.70697266 8.30378906 11.84167969 7.25390625 11.98046875 C5.85120483 12.16452271 5.85120483 12.16452271 4.42016602 12.35229492 C1.75747297 13.06490711 0.72004897 13.89142569 -1 16 C-0.67 15.236875 -0.34 14.47375 0 13.6875 C1.17436686 11.00930865 1.17436686 11.00930865 1 8 C1 7.34 1 6.68 1 6 C-1.31 6 -3.62 6 -6 6 C-4 4 -2 2 0 0 Z " fill="#5F5F5D" transform="translate(168,149)"/>
<path d="M0 0 C0.66 0 1.32 0 2 0 C2.2236337 1.41433206 2.42826476 2.83167618 2.625 4.25 C2.74101563 5.03890625 2.85703125 5.8278125 2.9765625 6.640625 C3.00319395 9.32152459 2.36592084 10.72694089 1 13 C2.918125 12.938125 2.918125 12.938125 4.875 12.875 C10.08872856 12.85842217 14.94007672 13.81688642 20 15 C19.34 16.32 18.68 17.64 18 19 C10.74 19 3.48 19 -4 19 C-4.33 19.66 -4.66 20.32 -5 21 C-5.33 20.01 -5.66 19.02 -6 18 C-5.34 18 -4.68 18 -4 18 C-4.33 16.02 -4.66 14.04 -5 12 C-4.34 12 -3.68 12 -3 12 C-2.87625 10.948125 -2.7525 9.89625 -2.625 8.8125 C-2.08859218 5.54041229 -1.36119965 2.99463924 0 0 Z " fill="#2A2A2A" transform="translate(83,140)"/>
<path d="M0 0 C4.81035973 4.3730543 8.59926143 9.46277438 12 15 C12 15.66 12 16.32 12 17 C13.98 17 15.96 17 18 17 C18 17.33 18 17.66 18 18 C11.47692308 18.36923077 11.47692308 18.36923077 9.0625 16.5 C8.5365625 15.7575 8.5365625 15.7575 8 15 C7.34 15.33 6.68 15.66 6 16 C6 16.33 6 16.66 6 17 C-10.17 17 -26.34 17 -43 17 C-41 12 -41 12 -39 11 C-39.33 12.32 -39.66 13.64 -40 15 C-26.14 15.33 -12.28 15.66 2 16 C0.02 13.03 -1.96 10.06 -4 7 C-3.67 6.34 -3.34 5.68 -3 5 C-1.68 5.33 -0.36 5.66 1 6 C0.505 3.03 0.505 3.03 0 0 Z " fill="#838383" transform="translate(157,73)"/>
<path d="M0 0 C3.68881485 3.53156519 6.77382244 7.18534092 9.8125 11.3125 C10.42254883 12.13717773 10.42254883 12.13717773 11.04492188 12.97851562 C12.03368611 14.31625547 13.01738585 15.65773623 14 17 C13.38125 17.144375 12.7625 17.28875 12.125 17.4375 C9.96741678 17.93152225 9.96741678 17.93152225 8 19 C7.67 19.66 7.34 20.32 7 21 C2.08293044 15.66105169 -2.12281347 10.13532814 -6 4 C-2.25 2 -2.25 2 0 2 C0 1.34 0 0.68 0 0 Z " fill="#5D5D5D" transform="translate(122,171)"/>
<path d="M0 0 C2.475 0.495 2.475 0.495 5 1 C5.83211276 6.03854106 6.1078534 10.8125662 6.0625 15.9375 C6.05573242 16.96327148 6.05573242 16.96327148 6.04882812 18.00976562 C6.0371956 19.67321604 6.01926694 21.3366205 6 23 C5.34 23 4.68 23 4 23 C4 24.98 4 26.96 4 29 C2.68 29 1.36 29 0 29 C0 19.43 0 9.86 0 0 Z " fill="#2A2A28" transform="translate(201,37)"/>
<path d="M0 0 C5.2240374 1.41818193 8.95443895 3.78408495 13.25 6.9375 C13.87390625 7.38029297 14.4978125 7.82308594 15.140625 8.27929688 C18.01335609 10.35645481 20.01566565 12.02349847 22 15 C21.443125 14.71125 20.88625 14.4225 20.3125 14.125 C17.91505355 12.9586747 15.48403061 11.9660119 13 11 C12.34 11.66 11.68 12.32 11 13 C11.99 14.485 11.99 14.485 13 16 C9.31852424 14.26328416 5.89056569 12.14408578 2.4375 10 C1.86064453 9.64421875 1.28378906 9.2884375 0.68945312 8.921875 C-1.90235298 7.31955888 -4.46434984 5.69043344 -7 4 C-5.0625 3.4375 -5.0625 3.4375 -3 3 C-2.67 3.33 -2.34 3.66 -2 4 C-1.34 2.68 -0.68 1.36 0 0 Z " fill="#636363" transform="translate(104,23)"/>
<path d="M0 0 C2.56989114 0.95453099 4.90685189 1.94307616 7.25 3.375 C11.01612258 5.60043607 14.98455832 7.27659693 19 9 C19 9.33 19 9.66 19 10 C17.35 10 15.7 10 14 10 C13.67 11.32 13.34 12.64 13 14 C13.99 14.33 14.98 14.66 16 15 C13 16 13 16 9.53125 14.48828125 C8.181821 13.77364281 6.83823283 13.0478908 5.5 12.3125 C4.48486328 11.78366211 4.48486328 11.78366211 3.44921875 11.24414062 C-0.18848449 9.28178987 -2.82454919 7.65047238 -5 4 C-3.35 4 -1.7 4 0 4 C0 2.68 0 1.36 0 0 Z " fill="#636363" transform="translate(163,215)"/>
<path d="M0 0 C0.99 0.33 1.98 0.66 3 1 C2.50008693 5.28283732 1.29833005 7.181543 -1.8125 10.125 C-2.49957031 10.78757813 -3.18664062 11.45015625 -3.89453125 12.1328125 C-9.33144476 16.95441669 -9.33144476 16.95441669 -12.75 17.1875 C-13.86375 17.0946875 -13.86375 17.0946875 -15 17 C-15 16.34 -15 15.68 -15 15 C-15.66 14.67 -16.32 14.34 -17 14 C-15.79201323 12.46228979 -14.55777086 10.94517544 -13.3125 9.4375 C-12.62800781 8.59058594 -11.94351563 7.74367187 -11.23828125 6.87109375 C-9 5 -9 5 -6.23046875 5.22265625 C-5.49441406 5.47917969 -4.75835937 5.73570312 -4 6 C-3.566875 5.071875 -3.566875 5.071875 -3.125 4.125 C-2 2 -2 2 0 0 Z " fill="#484848" transform="translate(130,205)"/>
<path d="M0 0 C0.92941406 0.54269531 1.85882813 1.08539063 2.81640625 1.64453125 C4.06498532 2.36739282 5.31368999 3.09003747 6.5625 3.8125 C7.17158203 4.16892578 7.78066406 4.52535156 8.40820312 4.89257812 C12.50419646 7.25481767 16.62127791 9.21357155 21 11 C21 11.33 21 11.66 21 12 C15.92387682 12.61528766 13.17017994 10.61658349 9 8 C9 9.32 9 10.64 9 12 C9.66 12.33 10.32 12.66 11 13 C11 13.66 11 14.32 11 15 C5.40694142 13.60173536 1.28009079 10.75912508 -3 7 C-3.33 6.34 -3.66 5.68 -4 5 C-3.01 5 -2.02 5 -1 5 C-0.67 3.35 -0.34 1.7 0 0 Z " fill="#6A6A6A" transform="translate(26,131)"/>
<path d="M0 0 C3.56942841 1.57369589 6.40869124 3.91581763 8.94921875 6.859375 C9.88671875 9.734375 9.88671875 9.734375 9.94921875 11.859375 C7.44073342 12.78844364 6.17320987 12.92495135 3.57421875 12.1640625 C0.51615906 10.64413402 -1.14028399 8.93821928 -3.36328125 6.359375 C-4.06066406 5.5653125 -4.75804687 4.77125 -5.4765625 3.953125 C-7.05078125 1.859375 -7.05078125 1.859375 -7.05078125 -0.140625 C-4.40276696 -1.46463215 -2.74813883 -0.85267201 0 0 Z " fill="#4D4D4D" transform="translate(154.05078125,207.140625)"/>
<path d="M0 0 C-0.59834725 4.14298667 -2.00664285 7.18194377 -4.0625 10.8125 C-4.61035156 11.78832031 -5.15820312 12.76414063 -5.72265625 13.76953125 C-6.35494141 14.87361328 -6.35494141 14.87361328 -7 16 C-5.02 16 -3.04 16 -1 16 C-1 16.33 -1 16.66 -1 17 C-3.31 17 -5.62 17 -8 17 C-8 16.34 -8 15.68 -8 15 C-9.32 15.33 -10.64 15.66 -12 16 C-10.94853607 9.8987422 -9.44920856 5.17381284 -6 0 C-3.50907189 -1.24546405 -2.58919267 -0.7767578 0 0 Z " fill="#363634" transform="translate(180,138)"/>
<path d="M0 0 C3.46082364 0.35419943 5.86817057 2.06141977 8.6875 4 C9.47511719 4.53625 10.26273438 5.0725 11.07421875 5.625 C13 7 13 7 14 8 C14.04063832 9.66617115 14.042721 11.33388095 14 13 C12.02 13.99 12.02 13.99 10 15 C8.55524014 13.77937479 7.11949236 12.54807874 5.6875 11.3125 C4.88699219 10.62800781 4.08648437 9.94351563 3.26171875 9.23828125 C0.98304764 6.98322332 -0.48017643 4.80847657 -2 2 C-1.34 1.34 -0.68 0.68 0 0 Z " fill="#565656" transform="translate(116,33)"/>
<path d="M0 0 C0.66 0.33 1.32 0.66 2 1 C1.67 1.66 1.34 2.32 1 3 C1.95865509 5.33075929 1.95865509 5.33075929 5 7 C2.880788 8.36405618 0.75551882 9.71631775 -1.375 11.0625 C-1.97828125 11.45244141 -2.5815625 11.84238281 -3.203125 12.24414062 C-4.76492557 13.22460432 -6.37992214 14.11916075 -8 15 C-8.66 14.67 -9.32 14.34 -10 14 C-9.01 13.34 -8.02 12.68 -7 12 C-7.33 11.01 -7.66 10.02 -8 9 C-10.31 9.33 -12.62 9.66 -15 10 C-11.5330593 7.28502133 -7.89909493 5.25018185 -4.0234375 3.18359375 C-1.86936053 2.03824928 -1.86936053 2.03824928 0 0 Z " fill="#686867" transform="translate(114,216)"/>
<path d="M0 0 C0.66 0 1.32 0 2 0 C2.2236337 1.41433206 2.42826476 2.83167618 2.625 4.25 C2.74101563 5.03890625 2.85703125 5.8278125 2.9765625 6.640625 C3.00319395 9.32152459 2.36592084 10.72694089 1 13 C1.66 13.33 2.32 13.66 3 14 C2.01 15.485 2.01 15.485 1 17 C0.34 17 -0.32 17 -1 17 C-1 17.66 -1 18.32 -1 19 C-1.99 19 -2.98 19 -4 19 C-4.33 19.66 -4.66 20.32 -5 21 C-5.33 20.01 -5.66 19.02 -6 18 C-5.34 18 -4.68 18 -4 18 C-4.33 16.02 -4.66 14.04 -5 12 C-4.34 12 -3.68 12 -3 12 C-2.87625 10.948125 -2.7525 9.89625 -2.625 8.8125 C-2.08859218 5.54041229 -1.36119965 2.99463924 0 0 Z " fill="#1E1E1E" transform="translate(83,140)"/>
<path d="M0 0 C2 1 2 1 3 3 C5.02463255 3.65213292 5.02463255 3.65213292 7 4 C5.44298069 8.67105792 2.91552627 12.08705685 0 16 C-2 13 -2 13 -2 11 C-3.32 11.33 -4.64 11.66 -6 12 C-4.43358249 7.69235185 -2.31663844 3.93828536 0 0 Z " fill="#646462" transform="translate(160,161)"/>
<path d="M0 0 C0.99 0.66 1.98 1.32 3 2 C3.6875 5.625 3.6875 5.625 4 9 C3.34 9 2.68 9 2 9 C2.103125 10.134375 2.20625 11.26875 2.3125 12.4375 C2.36050792 17.80478533 -0.15252979 21.60676024 -3 26 C-3.33 25.34 -3.66 24.68 -4 24 C-3.22265625 21.8359375 -3.22265625 21.8359375 -2.0625 19.375 C-1.68222656 18.55773437 -1.30195313 17.74046875 -0.91015625 16.8984375 C-0.45962891 15.95871094 -0.45962891 15.95871094 0 15 C-1.65 15 -3.3 15 -5 15 C-3.33333333 10 -1.66666667 5 0 0 Z " fill="#626262" transform="translate(180,123)"/>
<path d="M0 0 C0.66 0 1.32 0 2 0 C3.32 2.64 4.64 5.28 6 8 C6.66 7.01 7.32 6.02 8 5 C8.66 4.01 9.32 3.02 10 2 C11.65 4.97 13.3 7.94 15 11 C15.66 10.67 16.32 10.34 17 10 C17 11.32 17 12.64 17 14 C14.525 13.01 14.525 13.01 12 12 C11.855625 12.763125 11.71125 13.52625 11.5625 14.3125 C11 17 11 17 10 20 C8.51494131 17.41989804 7.03682689 14.83622441 5.5625 12.25 C5.14162109 11.52039063 4.72074219 10.79078125 4.28710938 10.0390625 C3.68286133 8.97558594 3.68286133 8.97558594 3.06640625 7.890625 C2.69459229 7.24125977 2.32277832 6.59189453 1.93969727 5.92285156 C0.9812968 3.96172866 0.4496957 2.13035565 0 0 Z " fill="#818181" transform="translate(169,103)"/>
<path d="M0 0 C4.32886416 4.32886416 4.10465264 11.19063878 4.13623047 16.9934082 C4.11993103 19.99640253 4.07119748 22.9978397 4 26 C3.67 26 3.34 26 3 26 C2.67 19.4 2.34 12.8 2 6 C0.35 5.67 -1.3 5.34 -3 5 C-2.99476318 5.75095947 -2.98952637 6.50191895 -2.98413086 7.27563477 C-2.96324039 10.70458121 -2.95030155 14.13351421 -2.9375 17.5625 C-2.92912109 18.74392578 -2.92074219 19.92535156 -2.91210938 21.14257812 C-2.89607001 26.86863072 -2.9489295 32.36394482 -4 38 C-4.33 38 -4.66 38 -5 38 C-5.12375079 33.2312159 -5.21440646 28.46336923 -5.2746582 23.69335938 C-5.29977772 22.07144895 -5.33388028 20.44965146 -5.37719727 18.828125 C-5.43796853 16.49450829 -5.46623294 14.16238952 -5.48828125 11.828125 C-5.51408768 11.10506165 -5.5398941 10.38199829 -5.56648254 9.63702393 C-5.56762695 7.57519531 -5.56762695 7.57519531 -5 4 C-2.46948242 1.51074219 -2.46948242 1.51074219 0 0 Z " fill="#BBBBBA" transform="translate(204,32)"/>
<path d="M0 0 C0.33 0.66 0.66 1.32 1 2 C0.01 2.495 0.01 2.495 -1 3 C-1.391875 3.78375 -1.78375 4.5675 -2.1875 5.375 C-4.66733496 8.96648512 -6.93862255 9.5440345 -11 11 C-11 11.99 -11 12.98 -11 14 C-11 14.66 -11 15.32 -11 16 C-12.98 16.99 -12.98 16.99 -15 18 C-14.7525 17.4225 -14.505 16.845 -14.25 16.25 C-14.1675 15.5075 -14.085 14.765 -14 14 C-15.85432087 11.72855926 -15.85432087 11.72855926 -18 10 C-17.67 9.01 -17.34 8.02 -17 7 C-16.34 7 -15.68 7 -15 7 C-14.67 5.68 -14.34 4.36 -14 3 C-12.02 4.65 -10.04 6.3 -8 8 C-7.59007812 7.50628906 -7.18015625 7.01257812 -6.7578125 6.50390625 C-6.21898437 5.86324219 -5.68015625 5.22257812 -5.125 4.5625 C-4.59132812 3.92441406 -4.05765625 3.28632812 -3.5078125 2.62890625 C-2 1 -2 1 0 0 Z " fill="#595959" transform="translate(145,39)"/>
<path d="M0 0 C0.94875 0.04125 1.8975 0.0825 2.875 0.125 C3.205 1.445 3.535 2.765 3.875 4.125 C5.525 4.125 7.175 4.125 8.875 4.125 C8.875 4.455 8.875 4.785 8.875 5.125 C7.92625 5.2075 6.9775 5.29 6 5.375 C2.77038209 5.77574923 2.77038209 5.77574923 1.5 8.1875 C1.190625 9.1465625 1.190625 9.1465625 0.875 10.125 C-1.105 10.125 -3.085 10.125 -5.125 10.125 C-5.3203125 4.0703125 -5.3203125 4.0703125 -5.125 2.125 C-3.125 0.125 -3.125 0.125 0 0 Z " fill="#242422" transform="translate(166.125,154.875)"/>
<path d="M0 0 C0.38285156 0.66128906 0.76570313 1.32257813 1.16015625 2.00390625 C-0.56477353 2.53860427 -2.29504175 3.056098 -4.02734375 3.56640625 C-5.47173828 4.00146484 -5.47173828 4.00146484 -6.9453125 4.4453125 C-10.01308341 5.03733847 -11.87705241 4.94033253 -14.83984375 4.00390625 C-15.49984375 3.34390625 -16.15984375 2.68390625 -16.83984375 2.00390625 C-13.71362384 -0.72322175 -11.38915983 -1.5252093 -7.27734375 -1.93359375 C-6.32730469 -2.04574219 -5.37726563 -2.15789062 -4.3984375 -2.2734375 C-1.83984375 -1.99609375 -1.83984375 -1.99609375 0 0 Z " fill="#232323" transform="translate(73.83984375,97.99609375)"/>
<path d="M0 0 C0.33 0.99 0.66 1.98 1 3 C0.01 3.66 -0.98 4.32 -2 5 C-2 6.32 -2 7.64 -2 9 C-3.37395994 13.25927581 -6.58926291 15.33072749 -10 18 C-10.625 16.1875 -10.625 16.1875 -11 14 C-10.34 13.01 -9.68 12.02 -9 11 C-9.33 10.34 -9.66 9.68 -10 9 C-9.34 9 -8.68 9 -8 9 C-8 8.34 -8 7.68 -8 7 C-6.25 5.2734375 -6.25 5.2734375 -4 3.375 C-3.2575 2.74335937 -2.515 2.11171875 -1.75 1.4609375 C-1.1725 0.97882812 -0.595 0.49671875 0 0 Z " fill="#3C3C3C" transform="translate(154,32)"/>
<path d="M0 0 C0 1.32 0 2.64 0 4 C0.66 4.66 1.32 5.32 2 6 C-0.12040742 7.03033882 -2.24647908 8.04902854 -4.375 9.0625 C-5.55835938 9.63097656 -6.74171875 10.19945313 -7.9609375 10.78515625 C-8.96382812 11.18605469 -9.96671875 11.58695313 -11 12 C-11.66 11.67 -12.32 11.34 -13 11 C-12.21625 10.608125 -11.4325 10.21625 -10.625 9.8125 C-7.64843582 7.75725331 -7.01176437 6.40320742 -6 3 C-7.98 3.33 -9.96 3.66 -12 4 C-8.71298741 1.21868166 -4.24676932 -2.12338466 0 0 Z " fill="#707070" transform="translate(45,103)"/>
<path d="M0 0 C0.94693195 3.7016431 1.30443767 5.39112465 -0.4375 8.875 C-0.953125 9.57625 -1.46875 10.2775 -2 11 C-2.99 10.01 -3.98 9.02 -5 8 C-6.98 8.99 -8.96 9.98 -11 11 C-5.92307692 0 -5.92307692 0 0 0 Z " fill="#585857" transform="translate(158,172)"/>
<path d="M0 0 C0.66 0 1.32 0 2 0 C5.26775806 5.22841289 5.26307538 8.17042133 4 14 C3.34 14.66 2.68 15.32 2 16 C-2.09725159 10.33615222 -2.09725159 10.33615222 -1.8203125 6.53125 C-1.30740914 4.31101082 -0.72482425 2.15978037 0 0 Z " fill="#4B4B4B" transform="translate(173,97)"/>
<path d="M0 0 C0.99 0.66 1.98 1.32 3 2 C2.34 3.98 1.68 5.96 1 8 C0.34 8 -0.32 8 -1 8 C-1 9.65 -1 11.3 -1 13 C-2.32 13 -3.64 13 -5 13 C-5.99 13.495 -5.99 13.495 -7 14 C-7 12.68 -7 11.36 -7 10 C-6.34 10 -5.68 10 -5 10 C-4.80664062 9.36191406 -4.61328125 8.72382812 -4.4140625 8.06640625 C-4.15367188 7.24011719 -3.89328125 6.41382812 -3.625 5.5625 C-3.36976562 4.73878906 -3.11453125 3.91507812 -2.8515625 3.06640625 C-2 1 -2 1 0 0 Z " fill="#212121" transform="translate(101,103)"/>
<path d="M0 0 C5.15829017 0.82901092 10.28655888 0.6384239 15.5 0.5625 C11.62342752 3.14688165 8.65638684 2.93098388 4.09375 3.12109375 C1.19080145 3.61511963 0.29318156 4.29073283 -1.5 6.5625 C-3.975 5.5725 -3.975 5.5725 -6.5 4.5625 C-6.5 3.2425 -6.5 1.9225 -6.5 0.5625 C-4.07001336 -0.27864922 -2.55694412 -0.44746522 0 0 Z " fill="#898988" transform="translate(83.5,225.4375)"/>
<path d="M0 0 C1.32 0.66 2.64 1.32 4 2 C3.34 4.31 2.68 6.62 2 9 C-1.3 9.66 -4.6 10.32 -8 11 C-7.3125 8.625 -7.3125 8.625 -6 6 C-4.34183216 5.31246699 -2.67540664 4.64438717 -1 4 C-0.11306697 1.95894361 -0.11306697 1.95894361 0 0 Z " fill="#464646" transform="translate(117,75)"/>
<path d="M0 0 C-0.26218749 4.4571874 -0.57711289 6.51522698 -3.5625 9.9375 C-4.366875 10.618125 -5.17125 11.29875 -6 12 C-6.66 9.36 -7.32 6.72 -8 4 C-3.375 0 -3.375 0 0 0 Z " fill="#444444" transform="translate(155,179)"/>
<path d="M0 0 C0.33 0.66 0.66 1.32 1 2 C-0.98 2.99 -0.98 2.99 -3 4 C-3.66 3.01 -4.32 2.02 -5 1 C-10.8566513 1.3970611 -13.50757744 2.02099716 -18 6 C-18.99 6 -19.98 6 -21 6 C-19.5404114 2.1519937 -17.66100886 0.78793456 -14 -1 C-9.33304437 -2.68528953 -4.5831167 -1.61924164 0 0 Z " fill="#838383" transform="translate(198,8)"/>
<path d="M0 0 C0.99 0.33 1.98 0.66 3 1 C2.91433603 3.912575 2.42089045 5.56798024 0.375 7.66796875 C-1.38391375 9.16091772 -3.16313019 10.60436262 -5 12 C-5.35338623 9.03155565 -5.5417682 6.84401782 -3.88671875 4.265625 C-2.64496832 2.79651181 -1.32662082 1.39295186 0 0 Z " fill="#414141" transform="translate(130,205)"/>
<path d="M0 0 C0.61875 0.66 1.2375 1.32 1.875 2 C3.75637427 4.2284549 3.75637427 4.2284549 6 4 C6 4.66 6 5.32 6 6 C5.34 6 4.68 6 4 6 C3.67 6.99 3.34 7.98 3 9 C0.69 8.67 -1.62 8.34 -4 8 C-2.25 2.25 -2.25 2.25 0 0 Z " fill="#757575" transform="translate(73,24)"/>
<path d="M0 0 C2 2 2 2 2 5 C2.66 5.33 3.32 5.66 4 6 C4.66 6.66 5.32 7.32 6 8 C8.32275177 8.40047444 10.65739357 8.7397104 13 9 C10.68868064 10.4445746 9.51955508 11.08323858 6.78125 10.64453125 C-0.87712152 7.85132383 -0.87712152 7.85132383 -4 5 C-2.93453047 2.86906094 -1.70840281 1.63412443 0 0 Z " fill="#727271" transform="translate(61,55)"/>
<path d="M0 0 C1.65 0.99 3.3 1.98 5 3 C4.625 4.9375 4.625 4.9375 4 7 C3.01 7.495 3.01 7.495 2 8 C1.67 7.01 1.34 6.02 1 5 C-2.16115776 6.36983503 -2.9927092 6.9890638 -5 10 C-5.99 9.67 -6.98 9.34 -8 9 C-7.04270084 7.87411986 -6.08412105 6.7493285 -5.125 5.625 C-4.59132813 4.99851563 -4.05765625 4.37203125 -3.5078125 3.7265625 C-2.38567993 2.44163349 -1.20628025 1.20628025 0 0 Z " fill="#565656" transform="translate(131,201)"/>
<path d="M0 0 C1.0828125 0.9590625 1.0828125 0.9590625 2.1875 1.9375 C4.98191184 3.98673535 6.61663274 4.61332946 10 5 C10.33 4.01 10.66 3.02 11 2 C11.33 3.65 11.66 5.3 12 7 C14.64 6.67 17.28 6.34 20 6 C17.53003576 8.46996424 16.66102667 8.32331778 13.25 8.375 C8.42384181 8.27736096 5.66737978 7.30064181 2 4 C0.625 1.75 0.625 1.75 0 0 Z " fill="#878786" transform="translate(221,151)"/>
<path d="M0 0 C0.33 0.99 0.66 1.98 1 3 C3.0836309 2.85848172 5.16689938 2.71162064 7.25 2.5625 C8.99023438 2.44068359 8.99023438 2.44068359 10.765625 2.31640625 C13.30977376 2.06752213 15.55953248 1.71885058 18 1 C18 1.99 18 2.98 18 4 C14.12328894 6.67289025 10.20732397 6.01875653 5.75 5.625 C5.00492188 5.56828125 4.25984375 5.5115625 3.4921875 5.453125 C1.66064892 5.31223742 -0.16981352 5.15748116 -2 5 C-1.34 3.35 -0.68 1.7 0 0 Z " fill="#9A9A98" transform="translate(175,149)"/>
<path d="M0 0 C2.375 0.3125 2.375 0.3125 5 1 C5.66 1.99 6.32 2.98 7 4 C5.02 4 3.04 4 1 4 C2.98 6.64 4.96 9.28 7 12 C2.46213776 9.73106888 1.05321843 7.90133466 -2 4 C-1.34 4 -0.68 4 0 4 C0 2.68 0 1.36 0 0 Z " fill="#727272" transform="translate(146,203)"/>
<path d="M0 0 C2.31 0.33 4.62 0.66 7 1 C7 1.66 7 2.32 7 3 C7.66386719 2.855625 8.32773438 2.71125 9.01171875 2.5625 C9.89472656 2.376875 10.77773437 2.19125 11.6875 2 C12.55761719 1.814375 13.42773438 1.62875 14.32421875 1.4375 C16.93712964 1.01027953 19.35813038 0.92383799 22 1 C21.67 1.66 21.34 2.32 21 3 C15.75033105 4.74988965 9.19570574 5.01226775 3.87890625 3.328125 C2.25 2.5 2.25 2.5 0 1 C0 0.67 0 0.34 0 0 Z " fill="#969694" transform="translate(126,143)"/>
<path d="M0 0 C2.0625 0.4375 2.0625 0.4375 4 1 C3.25 5.75 3.25 5.75 1 8 C0.01 8 -0.98 8 -2 8 C-1.125 1.125 -1.125 1.125 0 0 Z " fill="#535353" transform="translate(252,130)"/>
<path d="M0 0 C1.98 0 3.96 0 6 0 C6 0.66 6 1.32 6 2 C6.99 2.33 7.98 2.66 9 3 C9.6875 5.0625 9.6875 5.0625 10 7 C7.69 6.67 5.38 6.34 3 6 C2.814375 5.071875 2.814375 5.071875 2.625 4.125 C2.12802644 1.80879168 2.12802644 1.80879168 0 0 Z " fill="#2B2B2B" transform="translate(200,95)"/>
<path d="M0 0 C7.25398658 0.47567125 13.26812223 2.29466594 20 5 C20 5.33 20 5.66 20 6 C14.46332276 6.33898024 10.98511751 5.356601 6 3 C4.00736409 2.31163487 2.00958663 1.63718601 0 1 C0 0.67 0 0.34 0 0 Z " fill="#A1A1A1" transform="translate(214,97)"/>
<path d="M0 0 C2.625 0.9375 2.625 0.9375 5 2 C5 5 5 5 3 8 C1.29115995 6.37660195 -0.37446717 4.70680947 -2 3 C-2 2.34 -2 1.68 -2 1 C-1.34 0.67 -0.68 0.34 0 0 Z " fill="#1E1E1E" transform="translate(149,206)"/>
<path d="M0 0 C0.33 0 0.66 0 1 0 C1.40303244 6.44851898 0.69090653 11.10070492 -2 17 C-2.66 17.66 -3.32 18.32 -4 19 C-3.26309887 12.51527007 -1.64681249 6.30760257 0 0 Z " fill="#959595" transform="translate(198,71)"/>
<path d="M0 0 C2.62113708 0 4.50935112 0.31292445 7 1 C7 2.32 7 3.64 7 5 C5.02 5.99 5.02 5.99 3 7 C1.5 5.75 1.5 5.75 0 4 C0 2.68 0 1.36 0 0 Z " fill="#383838" transform="translate(123,41)"/>
<path d="M0 0 C0.99 0 1.98 0 3 0 C3.33 2.31 3.66 4.62 4 7 C1.36 6.67 -1.28 6.34 -4 6 C-3.34 4.68 -2.68 3.36 -2 2 C-1.34 2 -0.68 2 0 2 C0 1.34 0 0.68 0 0 Z " fill="#1D1D1C" transform="translate(193,151)"/>
<path d="M0 0 C0.66 0.66 1.32 1.32 2 2 C0.89591797 1.94779297 0.89591797 1.94779297 -0.23046875 1.89453125 C-7.62479476 1.57036226 -7.62479476 1.57036226 -14 5 C-14.66 4.34 -15.32 3.68 -16 3 C-10.24454591 -0.56654469 -6.65159132 -1.60555653 0 0 Z " fill="#A0A0A0" transform="translate(75,35)"/>
<path d="M0 0 C0.66 0.66 1.32 1.32 2 2 C4.36030696 2.45847689 6.7398174 2.82143131 9.125 3.125 C10.40632813 3.29257813 11.68765625 3.46015625 13.0078125 3.6328125 C14.48894531 3.81457031 14.48894531 3.81457031 16 4 C16.33 3.34 16.66 2.68 17 2 C17.33 2.99 17.66 3.98 18 5 C11.56744599 5.12086218 5.38226945 4.82351864 -1 4 C-0.67 2.68 -0.34 1.36 0 0 Z " fill="#B2B2B2" transform="translate(85,149)"/>
<path d="M0 0 C0.33 0.66 0.66 1.32 1 2 C0.01 2.495 0.01 2.495 -1 3 C-1.474375 3.804375 -1.94875 4.60875 -2.4375 5.4375 C-4 8 -4 8 -7 10 C-8.32 10 -9.64 10 -11 10 C-10.67 9.01 -10.34 8.02 -10 7 C-9.01 7 -8.02 7 -7 7 C-5.28859531 5.03814584 -3.62126675 3.03697617 -2 1 C-1.34 0.67 -0.68 0.34 0 0 Z " fill="#848484" transform="translate(145,39)"/>
<path d="M0 0 C0.66 0.33 1.32 0.66 2 1 C-0.16116434 4.24174651 -1.72037695 5.04784342 -5 7 C-6.36984198 8.29579647 -7.7151049 9.61992749 -9 11 C-9.66 10.67 -10.32 10.34 -11 10 C-9.73232923 8.70522938 -8.46073776 7.41429661 -7.1875 6.125 C-6.47980469 5.40570313 -5.77210938 4.68640625 -5.04296875 3.9453125 C-3 2 -3 2 0 0 Z " fill="#A4A4A4" transform="translate(157,28)"/>
<path d="M0 0 C2.125 0.375 2.125 0.375 4 1 C4.33 2.32 4.66 3.64 5 5 C3.68 5.33 2.36 5.66 1 6 C0.01 4.68 -0.98 3.36 -2 2 C-1.34 1.34 -0.68 0.68 0 0 Z " fill="#1F1F1F" transform="translate(116,33)"/>
<path d="M0 0 C0.99 0 1.98 0 3 0 C3.33 1.98 3.66 3.96 4 6 C2.35 5.67 0.7 5.34 -1 5 C-1.33 4.01 -1.66 3.02 -2 2 C-1.34 2 -0.68 2 0 2 C0 1.34 0 0.68 0 0 Z " fill="#212121" transform="translate(154,73)"/>
<path d="M0 0 C0 0.33 0 0.66 0 1 C-0.75925781 1.04898438 -1.51851562 1.09796875 -2.30078125 1.1484375 C-3.29464844 1.22320312 -4.28851563 1.29796875 -5.3125 1.375 C-6.79169922 1.47941406 -6.79169922 1.47941406 -8.30078125 1.5859375 C-11.21528433 1.83865472 -11.21528433 1.83865472 -14 4 C-16.1875 3.625 -16.1875 3.625 -18 3 C-12.27544841 -0.81636773 -6.70250505 -0.29282789 0 0 Z " fill="#ADADAD" transform="translate(144,104)"/>
<path d="M0 0 C0.66 0 1.32 0 2 0 C4.3992233 4.64849515 4.19957409 8.91086074 4 14 C1.6360342 9.38691694 0.8145714 5.12016309 0 0 Z " fill="#9A9A9A" transform="translate(67,68)"/>
<path d="M0 0 C0.33 0 0.66 0 1 0 C1.33 2.31 1.66 4.62 2 7 C1.34 7 0.68 7 0 7 C-0.103125 7.639375 -0.20625 8.27875 -0.3125 8.9375 C-0.539375 9.618125 -0.76625 10.29875 -1 11 C-1.99 11.33 -2.98 11.66 -4 12 C-2.66666667 8 -1.33333333 4 0 0 Z " fill="#929292" transform="translate(202,210)"/>
<path d="M0 0 C1.98 0.495 1.98 0.495 4 1 C4 2.98 4 4.96 4 7 C3.34 7 2.68 7 2 7 C2 6.34 2 5.68 2 5 C1.01 4.67 0.02 4.34 -1 4 C-0.67 2.68 -0.34 1.36 0 0 Z " fill="#242424" transform="translate(35,139)"/>
<path d="M0 0 C0.33 1.32 0.66 2.64 1 4 C-1.88211302 4.96070434 -3.69850044 5.10581883 -6.6875 5.0625 C-7.89986328 5.04896484 -7.89986328 5.04896484 -9.13671875 5.03515625 C-10.05904297 5.01775391 -10.05904297 5.01775391 -11 5 C-7.36383344 3.0210244 -4.11574371 2.4748935 0 2 C0 1.34 0 0.68 0 0 Z " fill="#8A8A8A" transform="translate(74,92)"/>
<path d="M0 0 C1.98 0 3.96 0 6 0 C6 1.65 6 3.3 6 5 C4.68 5 3.36 5 2 5 C1.34 3.35 0.68 1.7 0 0 Z " fill="#252525" transform="translate(167,98)"/>
<path d="M0 0 C0.93423645 3.01031744 1.04449911 3.86650268 0 7 C1.32 7.66 2.64 8.32 4 9 C2.02 9 0.04 9 -2 9 C-2.25 3.375 -2.25 3.375 0 0 Z " fill="#9C9C9C" transform="translate(201,86)"/>
<path d="M0 0 C0.99 0.33 1.98 0.66 3 1 C1.35 2.98 -0.3 4.96 -2 7 C-2.99 6.67 -3.98 6.34 -5 6 C-3.35 4.02 -1.7 2.04 0 0 Z " fill="#656565" transform="translate(128,204)"/>
<path d="M0 0 C3.5625 0.25 3.5625 0.25 6.5625 2.25 C2.22976186 3.17844389 -1.10476186 3.17844389 -5.4375 2.25 C-3.4375 0.25 -3.4375 0.25 0 0 Z " fill="#999999" transform="translate(73.4375,193.75)"/>
<path d="M0 0 C1.65 0 3.3 0 5 0 C3.95125002 2.62187494 3.35068687 3.79371361 0.875 5.25 C0.25625 5.4975 -0.3625 5.745 -1 6 C-0.67 4.02 -0.34 2.04 0 0 Z " fill="#6A6A68" transform="translate(242,151)"/>
<path d="M0 0 C0.99 0.99 1.98 1.98 3 3 C2.34 3 1.68 3 1 3 C1.33 3.99 1.66 4.98 2 6 C0.35 5.67 -1.3 5.34 -3 5 C-2.01 3.35 -1.02 1.7 0 0 Z " fill="#424242" transform="translate(66,216)"/>
<path d="M0 0 C0.66 0.33 1.32 0.66 2 1 C-1.01887244 4.48331435 -3.56909529 5.79157144 -8 7 C-5.42215154 4.35247996 -3.08351902 2.05567935 0 0 Z " fill="#9E9E9E" transform="translate(31,107)"/>
<path d="M0 0 C1.65 0 3.3 0 5 0 C4.01 0.495 4.01 0.495 3 1 C3 2.32 3 3.64 3 5 C1.68 4.67 0.36 4.34 -1 4 C-0.67 2.68 -0.34 1.36 0 0 Z " fill="#212121" transform="translate(177,225)"/>
<path d="M0 0 C0.33 0.66 0.66 1.32 1 2 C-0.25 4.5625 -0.25 4.5625 -2 7 C-2.99 7.33 -3.98 7.66 -5 8 C-3.8141763 4.62496331 -2.72426311 2.35277269 0 0 Z " fill="#8F8F8F" transform="translate(146,183)"/>
<path d="M0 0 C0.66 1.32 1.32 2.64 2 4 C1.34 4.66 0.68 5.32 0 6 C-0.99 6 -1.98 6 -3 6 C-2.42655063 3.13275314 -2.1385485 2.1385485 0 0 Z " fill="#767676" transform="translate(93,114)"/>
<path d="M0 0 C1 2 1 2 0.0625 5.125 C-0.288125 6.07375 -0.63875 7.0225 -1 8 C-1.99 7.67 -2.98 7.34 -4 7 C-2.92598892 4.08482708 -2.22189824 2.22189824 0 0 Z " fill="#757575" transform="translate(117,73)"/>
<path d="M0 0 C0.99 0.33 1.98 0.66 3 1 C4 4 4 4 3.0625 6.1875 C2.5365625 7.0846875 2.5365625 7.0846875 2 8 C1.67 8 1.34 8 1 8 C1 6.02 1 4.04 1 2 C0.34 1.67 -0.32 1.34 -1 1 C-0.67 0.67 -0.34 0.34 0 0 Z " fill="#B8B8B8" transform="translate(170,20)"/>
<path d="M0 0 C1.125 3.75 1.125 3.75 0 6 C-0.66 6 -1.32 6 -2 6 C-2 6.66 -2 7.32 -2 8 C-2.66 7.67 -3.32 7.34 -4 7 C-3.67 5.68 -3.34 4.36 -3 3 C-2.01 3 -1.02 3 0 3 C0 2.01 0 1.02 0 0 Z " fill="#989A97" transform="translate(87,213)"/>
<path d="M0 0 C1.65 0 3.3 0 5 0 C4.67 1.65 4.34 3.3 4 5 C2.68 4.34 1.36 3.68 0 3 C0 2.01 0 1.02 0 0 Z " fill="#252525" transform="translate(142,202)"/>
</svg>
